<mxfile host="app.diagrams.net" modified="2020-04-30T19:40:08.611Z" agent="5.0 (Macintosh; Intel Mac OS X 10_15_1) AppleWebKit/537.36 (KHTML, like Gecko) Chrome/81.0.4044.122 Safari/537.36" etag="k-4sT6ITlnwfSWLK2Blx" version="13.0.3" type="github" pages="16">
  <diagram id="D9HyF8kl8oEwc6lbt_1n" name="01 - flow">
    <mxGraphModel dx="527" dy="259" grid="1" gridSize="10" guides="1" tooltips="1" connect="1" arrows="1" fold="1" page="1" pageScale="1" pageWidth="1920" pageHeight="1200" math="0" shadow="0">
      <root>
        <mxCell id="0" />
        <mxCell id="1" parent="0" />
        <mxCell id="s1J4qnB--0OpUWrlFj6R-1" value="Add the &#39;mongoose-update-if-current&#39; module into the Orders model" style="rounded=0;whiteSpace=wrap;html=1;fillColor=#f5f5f5;strokeColor=#666666;fontColor=#333333;" vertex="1" parent="1">
          <mxGeometry x="690" y="210" width="350" height="40" as="geometry" />
        </mxCell>
        <mxCell id="s1J4qnB--0OpUWrlFj6R-2" value="" style="endArrow=classic;html=1;" edge="1" parent="1">
          <mxGeometry width="50" height="50" relative="1" as="geometry">
            <mxPoint x="680" y="210" as="sourcePoint" />
            <mxPoint x="680" y="350" as="targetPoint" />
          </mxGeometry>
        </mxCell>
        <mxCell id="s1J4qnB--0OpUWrlFj6R-3" value="Fix up some tests - we are creating some Tickets in the Orders service without providing them an ID" style="rounded=0;whiteSpace=wrap;html=1;fillColor=#f5f5f5;strokeColor=#666666;fontColor=#333333;" vertex="1" parent="1">
          <mxGeometry x="690" y="260" width="350" height="40" as="geometry" />
        </mxCell>
        <mxCell id="s1J4qnB--0OpUWrlFj6R-9" value="Next Couple Videos" style="text;html=1;strokeColor=none;fillColor=none;align=center;verticalAlign=middle;whiteSpace=wrap;rounded=0;fontStyle=1;fontSize=18;" vertex="1" parent="1">
          <mxGeometry x="771.25" y="180" width="187.5" height="20" as="geometry" />
        </mxCell>
        <mxCell id="uowyIP4JjEGz2xpEhS8j-1" value="Fix up some route handlers - we are publishing events around orders but not providing the version of the order" style="rounded=0;whiteSpace=wrap;html=1;fillColor=#f5f5f5;strokeColor=#666666;fontColor=#333333;" vertex="1" parent="1">
          <mxGeometry x="690" y="310" width="350" height="40" as="geometry" />
        </mxCell>
      </root>
    </mxGraphModel>
  </diagram>
  <diagram id="HKMVE8ienJL8nTPPCsES" name="02 - create">
    <mxGraphModel dx="683" dy="336" grid="1" gridSize="10" guides="1" tooltips="1" connect="1" arrows="1" fold="1" page="1" pageScale="1" pageWidth="1920" pageHeight="1200" math="0" shadow="0">
      <root>
        <mxCell id="8QbkFhcsRXDe_ZoQsyGt-0" />
        <mxCell id="8QbkFhcsRXDe_ZoQsyGt-1" parent="8QbkFhcsRXDe_ZoQsyGt-0" />
        <mxCell id="8QbkFhcsRXDe_ZoQsyGt-2" value="Run a query to find the ticket the user is trying to order" style="rounded=0;whiteSpace=wrap;html=1;fontSize=15;fillColor=#f5f5f5;strokeColor=#666666;fontColor=#333333;" vertex="1" parent="8QbkFhcsRXDe_ZoQsyGt-1">
          <mxGeometry x="680" y="150" width="390" height="50" as="geometry" />
        </mxCell>
        <mxCell id="8QbkFhcsRXDe_ZoQsyGt-3" value="Create Order Route Handler" style="text;html=1;strokeColor=none;fillColor=none;align=center;verticalAlign=middle;whiteSpace=wrap;rounded=0;fontSize=24;fontStyle=1" vertex="1" parent="8QbkFhcsRXDe_ZoQsyGt-1">
          <mxGeometry x="640" y="110" width="470" height="40" as="geometry" />
        </mxCell>
        <mxCell id="8QbkFhcsRXDe_ZoQsyGt-4" value="" style="endArrow=classic;html=1;fontSize=24;" edge="1" parent="8QbkFhcsRXDe_ZoQsyGt-1">
          <mxGeometry width="50" height="50" relative="1" as="geometry">
            <mxPoint x="670" y="150" as="sourcePoint" />
            <mxPoint x="670" y="440" as="targetPoint" />
          </mxGeometry>
        </mxCell>
        <mxCell id="8QbkFhcsRXDe_ZoQsyGt-5" value="Run a query to see if there is an un-cancelled order referencing this ticket" style="rounded=0;whiteSpace=wrap;html=1;fontSize=15;fillColor=#f5f5f5;strokeColor=#666666;fontColor=#333333;" vertex="1" parent="8QbkFhcsRXDe_ZoQsyGt-1">
          <mxGeometry x="680" y="210" width="390" height="50" as="geometry" />
        </mxCell>
        <mxCell id="8QbkFhcsRXDe_ZoQsyGt-7" value="Calculate expiration" style="rounded=0;whiteSpace=wrap;html=1;fontSize=15;fillColor=#f5f5f5;strokeColor=#666666;fontColor=#333333;" vertex="1" parent="8QbkFhcsRXDe_ZoQsyGt-1">
          <mxGeometry x="680" y="270" width="390" height="50" as="geometry" />
        </mxCell>
        <mxCell id="8QbkFhcsRXDe_ZoQsyGt-8" value="Build an order" style="rounded=0;whiteSpace=wrap;html=1;fontSize=15;fillColor=#f5f5f5;strokeColor=#666666;fontColor=#333333;" vertex="1" parent="8QbkFhcsRXDe_ZoQsyGt-1">
          <mxGeometry x="680" y="330" width="390" height="50" as="geometry" />
        </mxCell>
        <mxCell id="8QbkFhcsRXDe_ZoQsyGt-9" value="Save the order" style="rounded=0;whiteSpace=wrap;html=1;fontSize=15;fillColor=#f5f5f5;strokeColor=#666666;fontColor=#333333;" vertex="1" parent="8QbkFhcsRXDe_ZoQsyGt-1">
          <mxGeometry x="680" y="390" width="390" height="50" as="geometry" />
        </mxCell>
      </root>
    </mxGraphModel>
  </diagram>
  <diagram name="03 - wait" id="UI8dx2PMrNd6FA7JiF-l">
    <mxGraphModel dx="969" dy="477" grid="1" gridSize="10" guides="1" tooltips="1" connect="1" arrows="1" fold="1" page="1" pageScale="1" pageWidth="1920" pageHeight="1200" math="0" shadow="0">
      <root>
        <mxCell id="ikROKSV0xIGyEc4lWUB4-0" />
        <mxCell id="ikROKSV0xIGyEc4lWUB4-1" parent="ikROKSV0xIGyEc4lWUB4-0" />
        <mxCell id="ikROKSV0xIGyEc4lWUB4-9" style="edgeStyle=orthogonalEdgeStyle;rounded=0;orthogonalLoop=1;jettySize=auto;html=1;exitX=0.5;exitY=1;exitDx=0;exitDy=0;fontSize=15;" edge="1" parent="ikROKSV0xIGyEc4lWUB4-1" source="ikROKSV0xIGyEc4lWUB4-2" target="ikROKSV0xIGyEc4lWUB4-5">
          <mxGeometry relative="1" as="geometry" />
        </mxCell>
        <mxCell id="ikROKSV0xIGyEc4lWUB4-2" value="Run a query to find the ticket the user is trying to order" style="rounded=0;whiteSpace=wrap;html=1;fontSize=15;fillColor=#f5f5f5;strokeColor=#666666;fontColor=#333333;" vertex="1" parent="ikROKSV0xIGyEc4lWUB4-1">
          <mxGeometry x="680" y="150" width="390" height="50" as="geometry" />
        </mxCell>
        <mxCell id="ikROKSV0xIGyEc4lWUB4-3" value="Create Order Route Handler" style="text;html=1;strokeColor=none;fillColor=none;align=center;verticalAlign=middle;whiteSpace=wrap;rounded=0;fontSize=24;fontStyle=1" vertex="1" parent="ikROKSV0xIGyEc4lWUB4-1">
          <mxGeometry x="640" y="110" width="470" height="40" as="geometry" />
        </mxCell>
        <mxCell id="ikROKSV0xIGyEc4lWUB4-4" value="" style="endArrow=classic;html=1;fontSize=24;" edge="1" parent="ikROKSV0xIGyEc4lWUB4-1">
          <mxGeometry width="50" height="50" relative="1" as="geometry">
            <mxPoint x="670" y="150" as="sourcePoint" />
            <mxPoint x="670" y="540" as="targetPoint" />
          </mxGeometry>
        </mxCell>
        <mxCell id="ikROKSV0xIGyEc4lWUB4-10" style="edgeStyle=orthogonalEdgeStyle;rounded=0;orthogonalLoop=1;jettySize=auto;html=1;exitX=0.5;exitY=1;exitDx=0;exitDy=0;fontSize=15;" edge="1" parent="ikROKSV0xIGyEc4lWUB4-1" source="ikROKSV0xIGyEc4lWUB4-5" target="ikROKSV0xIGyEc4lWUB4-6">
          <mxGeometry relative="1" as="geometry" />
        </mxCell>
        <mxCell id="ikROKSV0xIGyEc4lWUB4-5" value="Run a query to see if there is an un-cancelled order referencing this ticket" style="rounded=0;whiteSpace=wrap;html=1;fontSize=15;fillColor=#f5f5f5;strokeColor=#666666;fontColor=#333333;" vertex="1" parent="ikROKSV0xIGyEc4lWUB4-1">
          <mxGeometry x="680" y="240" width="390" height="50" as="geometry" />
        </mxCell>
        <mxCell id="ikROKSV0xIGyEc4lWUB4-6" value="Calculate expiration" style="rounded=0;whiteSpace=wrap;html=1;fontSize=15;fillColor=#f5f5f5;strokeColor=#666666;fontColor=#333333;" vertex="1" parent="ikROKSV0xIGyEc4lWUB4-1">
          <mxGeometry x="680" y="340" width="390" height="50" as="geometry" />
        </mxCell>
        <mxCell id="ikROKSV0xIGyEc4lWUB4-11" style="edgeStyle=orthogonalEdgeStyle;rounded=0;orthogonalLoop=1;jettySize=auto;html=1;exitX=0.5;exitY=1;exitDx=0;exitDy=0;entryX=0.5;entryY=0;entryDx=0;entryDy=0;fontSize=15;" edge="1" parent="ikROKSV0xIGyEc4lWUB4-1" source="ikROKSV0xIGyEc4lWUB4-7" target="ikROKSV0xIGyEc4lWUB4-8">
          <mxGeometry relative="1" as="geometry" />
        </mxCell>
        <mxCell id="ikROKSV0xIGyEc4lWUB4-7" value="Build an order" style="rounded=0;whiteSpace=wrap;html=1;fontSize=15;fillColor=#f5f5f5;strokeColor=#666666;fontColor=#333333;" vertex="1" parent="ikROKSV0xIGyEc4lWUB4-1">
          <mxGeometry x="680" y="400" width="390" height="50" as="geometry" />
        </mxCell>
        <mxCell id="ikROKSV0xIGyEc4lWUB4-8" value="Save the order" style="rounded=0;whiteSpace=wrap;html=1;fontSize=15;fillColor=#f5f5f5;strokeColor=#666666;fontColor=#333333;" vertex="1" parent="ikROKSV0xIGyEc4lWUB4-1">
          <mxGeometry x="680" y="490" width="390" height="50" as="geometry" />
        </mxCell>
        <mxCell id="ikROKSV0xIGyEc4lWUB4-12" value="Wait..." style="text;html=1;strokeColor=none;fillColor=none;align=left;verticalAlign=middle;whiteSpace=wrap;rounded=0;fontSize=15;fontStyle=2" vertex="1" parent="ikROKSV0xIGyEc4lWUB4-1">
          <mxGeometry x="880" y="210" width="140" height="20" as="geometry" />
        </mxCell>
        <mxCell id="ikROKSV0xIGyEc4lWUB4-13" value="Wait..." style="text;html=1;strokeColor=none;fillColor=none;align=left;verticalAlign=middle;whiteSpace=wrap;rounded=0;fontSize=15;fontStyle=2" vertex="1" parent="ikROKSV0xIGyEc4lWUB4-1">
          <mxGeometry x="880" y="303" width="140" height="20" as="geometry" />
        </mxCell>
        <mxCell id="ikROKSV0xIGyEc4lWUB4-14" value="Wait..." style="text;html=1;strokeColor=none;fillColor=none;align=left;verticalAlign=middle;whiteSpace=wrap;rounded=0;fontSize=15;fontStyle=2" vertex="1" parent="ikROKSV0xIGyEc4lWUB4-1">
          <mxGeometry x="880" y="460" width="140" height="20" as="geometry" />
        </mxCell>
        <mxCell id="xiPY3Y11spBC2-HDSpa1-0" value="" style="endArrow=none;html=1;fontSize=15;fillColor=#f8cecc;strokeColor=#b85450;strokeWidth=6;" edge="1" parent="ikROKSV0xIGyEc4lWUB4-1">
          <mxGeometry width="50" height="50" relative="1" as="geometry">
            <mxPoint x="680" y="550" as="sourcePoint" />
            <mxPoint x="1170" y="550" as="targetPoint" />
          </mxGeometry>
        </mxCell>
        <mxCell id="xiPY3Y11spBC2-HDSpa1-2" value="Ticket is now reserved" style="rounded=0;whiteSpace=wrap;html=1;fontSize=16;align=center;fillColor=#f8cecc;strokeColor=#b85450;fontStyle=1" vertex="1" parent="ikROKSV0xIGyEc4lWUB4-1">
          <mxGeometry x="1170" y="510" width="120" height="60" as="geometry" />
        </mxCell>
      </root>
    </mxGraphModel>
  </diagram>
  <diagram name="04 - multi" id="hu3d7YomDiUdqpp-DTcD">
    <mxGraphModel dx="1430" dy="704" grid="1" gridSize="10" guides="1" tooltips="1" connect="1" arrows="1" fold="1" page="1" pageScale="1" pageWidth="1920" pageHeight="1200" math="0" shadow="0">
      <root>
        <mxCell id="EddqPIEF-tHgntxyQFSr-0" />
        <mxCell id="EddqPIEF-tHgntxyQFSr-1" parent="EddqPIEF-tHgntxyQFSr-0" />
        <mxCell id="EddqPIEF-tHgntxyQFSr-2" style="edgeStyle=orthogonalEdgeStyle;rounded=0;orthogonalLoop=1;jettySize=auto;html=1;exitX=0.5;exitY=1;exitDx=0;exitDy=0;fontSize=15;" edge="1" parent="EddqPIEF-tHgntxyQFSr-1" source="EddqPIEF-tHgntxyQFSr-3" target="EddqPIEF-tHgntxyQFSr-7">
          <mxGeometry relative="1" as="geometry" />
        </mxCell>
        <mxCell id="EddqPIEF-tHgntxyQFSr-3" value="Run a query to find the ticket the user is trying to order" style="rounded=0;whiteSpace=wrap;html=1;fontSize=15;fillColor=#f5f5f5;strokeColor=#666666;fontColor=#333333;" vertex="1" parent="EddqPIEF-tHgntxyQFSr-1">
          <mxGeometry x="680" y="150" width="390" height="50" as="geometry" />
        </mxCell>
        <mxCell id="EddqPIEF-tHgntxyQFSr-4" value="Request #1" style="text;html=1;strokeColor=none;fillColor=none;align=center;verticalAlign=middle;whiteSpace=wrap;rounded=0;fontSize=24;fontStyle=1" vertex="1" parent="EddqPIEF-tHgntxyQFSr-1">
          <mxGeometry x="640" y="110" width="470" height="40" as="geometry" />
        </mxCell>
        <mxCell id="EddqPIEF-tHgntxyQFSr-6" style="edgeStyle=orthogonalEdgeStyle;rounded=0;orthogonalLoop=1;jettySize=auto;html=1;exitX=0.5;exitY=1;exitDx=0;exitDy=0;fontSize=15;" edge="1" parent="EddqPIEF-tHgntxyQFSr-1" source="EddqPIEF-tHgntxyQFSr-7" target="EddqPIEF-tHgntxyQFSr-8">
          <mxGeometry relative="1" as="geometry" />
        </mxCell>
        <mxCell id="EddqPIEF-tHgntxyQFSr-7" value="Run a query to see if there is an un-cancelled order referencing this ticket" style="rounded=0;whiteSpace=wrap;html=1;fontSize=15;fillColor=#f5f5f5;strokeColor=#666666;fontColor=#333333;" vertex="1" parent="EddqPIEF-tHgntxyQFSr-1">
          <mxGeometry x="680" y="240" width="390" height="50" as="geometry" />
        </mxCell>
        <mxCell id="EddqPIEF-tHgntxyQFSr-8" value="Calculate expiration" style="rounded=0;whiteSpace=wrap;html=1;fontSize=15;fillColor=#f5f5f5;strokeColor=#666666;fontColor=#333333;" vertex="1" parent="EddqPIEF-tHgntxyQFSr-1">
          <mxGeometry x="680" y="340" width="390" height="50" as="geometry" />
        </mxCell>
        <mxCell id="EddqPIEF-tHgntxyQFSr-9" style="edgeStyle=orthogonalEdgeStyle;rounded=0;orthogonalLoop=1;jettySize=auto;html=1;exitX=0.5;exitY=1;exitDx=0;exitDy=0;entryX=0.5;entryY=0;entryDx=0;entryDy=0;fontSize=15;" edge="1" parent="EddqPIEF-tHgntxyQFSr-1" source="EddqPIEF-tHgntxyQFSr-10" target="EddqPIEF-tHgntxyQFSr-11">
          <mxGeometry relative="1" as="geometry" />
        </mxCell>
        <mxCell id="EddqPIEF-tHgntxyQFSr-10" value="Build an order" style="rounded=0;whiteSpace=wrap;html=1;fontSize=15;fillColor=#f5f5f5;strokeColor=#666666;fontColor=#333333;" vertex="1" parent="EddqPIEF-tHgntxyQFSr-1">
          <mxGeometry x="680" y="400" width="390" height="50" as="geometry" />
        </mxCell>
        <mxCell id="EddqPIEF-tHgntxyQFSr-11" value="Save the order" style="rounded=0;whiteSpace=wrap;html=1;fontSize=15;fillColor=#f5f5f5;strokeColor=#666666;fontColor=#333333;" vertex="1" parent="EddqPIEF-tHgntxyQFSr-1">
          <mxGeometry x="680" y="490" width="390" height="50" as="geometry" />
        </mxCell>
        <mxCell id="EddqPIEF-tHgntxyQFSr-12" value="Wait..." style="text;html=1;strokeColor=none;fillColor=none;align=left;verticalAlign=middle;whiteSpace=wrap;rounded=0;fontSize=15;fontStyle=2" vertex="1" parent="EddqPIEF-tHgntxyQFSr-1">
          <mxGeometry x="880" y="210" width="140" height="20" as="geometry" />
        </mxCell>
        <mxCell id="EddqPIEF-tHgntxyQFSr-13" value="Wait..." style="text;html=1;strokeColor=none;fillColor=none;align=left;verticalAlign=middle;whiteSpace=wrap;rounded=0;fontSize=15;fontStyle=2" vertex="1" parent="EddqPIEF-tHgntxyQFSr-1">
          <mxGeometry x="880" y="303" width="140" height="20" as="geometry" />
        </mxCell>
        <mxCell id="EddqPIEF-tHgntxyQFSr-14" value="Wait..." style="text;html=1;strokeColor=none;fillColor=none;align=left;verticalAlign=middle;whiteSpace=wrap;rounded=0;fontSize=15;fontStyle=2" vertex="1" parent="EddqPIEF-tHgntxyQFSr-1">
          <mxGeometry x="880" y="460" width="140" height="20" as="geometry" />
        </mxCell>
        <mxCell id="OrX4B0yz2qmsGkPr_7qH-2" value="" style="endArrow=none;html=1;fontSize=15;fillColor=#f8cecc;strokeColor=#b85450;strokeWidth=6;" edge="1" parent="EddqPIEF-tHgntxyQFSr-1">
          <mxGeometry width="50" height="50" relative="1" as="geometry">
            <mxPoint x="670.0000000000002" y="559.66" as="sourcePoint" />
            <mxPoint x="1971.3793103448277" y="560" as="targetPoint" />
          </mxGeometry>
        </mxCell>
        <mxCell id="OrX4B0yz2qmsGkPr_7qH-3" value="Ticket is now reserved" style="rounded=0;whiteSpace=wrap;html=1;fontSize=16;align=center;fillColor=#f8cecc;strokeColor=#b85450;fontStyle=1" vertex="1" parent="EddqPIEF-tHgntxyQFSr-1">
          <mxGeometry x="550" y="530" width="120" height="60" as="geometry" />
        </mxCell>
        <mxCell id="OrX4B0yz2qmsGkPr_7qH-4" style="edgeStyle=orthogonalEdgeStyle;rounded=0;orthogonalLoop=1;jettySize=auto;html=1;exitX=0.5;exitY=1;exitDx=0;exitDy=0;fontSize=15;" edge="1" parent="EddqPIEF-tHgntxyQFSr-1" source="OrX4B0yz2qmsGkPr_7qH-5" target="OrX4B0yz2qmsGkPr_7qH-7">
          <mxGeometry relative="1" as="geometry" />
        </mxCell>
        <mxCell id="OrX4B0yz2qmsGkPr_7qH-5" value="Run a query to find the ticket the user is trying to order" style="rounded=0;whiteSpace=wrap;html=1;fontSize=15;fillColor=#f5f5f5;strokeColor=#666666;fontColor=#333333;" vertex="1" parent="EddqPIEF-tHgntxyQFSr-1">
          <mxGeometry x="1110" y="200" width="390" height="50" as="geometry" />
        </mxCell>
        <mxCell id="OrX4B0yz2qmsGkPr_7qH-6" style="edgeStyle=orthogonalEdgeStyle;rounded=0;orthogonalLoop=1;jettySize=auto;html=1;exitX=0.5;exitY=1;exitDx=0;exitDy=0;fontSize=15;" edge="1" parent="EddqPIEF-tHgntxyQFSr-1" source="OrX4B0yz2qmsGkPr_7qH-7" target="OrX4B0yz2qmsGkPr_7qH-8">
          <mxGeometry relative="1" as="geometry" />
        </mxCell>
        <mxCell id="OrX4B0yz2qmsGkPr_7qH-7" value="Run a query to see if there is an un-cancelled order referencing this ticket" style="rounded=0;whiteSpace=wrap;html=1;fontSize=15;fillColor=#f5f5f5;strokeColor=#666666;fontColor=#333333;" vertex="1" parent="EddqPIEF-tHgntxyQFSr-1">
          <mxGeometry x="1110" y="290" width="390" height="50" as="geometry" />
        </mxCell>
        <mxCell id="OrX4B0yz2qmsGkPr_7qH-8" value="Calculate expiration" style="rounded=0;whiteSpace=wrap;html=1;fontSize=15;fillColor=#f5f5f5;strokeColor=#666666;fontColor=#333333;" vertex="1" parent="EddqPIEF-tHgntxyQFSr-1">
          <mxGeometry x="1110" y="390" width="390" height="50" as="geometry" />
        </mxCell>
        <mxCell id="OrX4B0yz2qmsGkPr_7qH-9" style="edgeStyle=orthogonalEdgeStyle;rounded=0;orthogonalLoop=1;jettySize=auto;html=1;exitX=0.5;exitY=1;exitDx=0;exitDy=0;entryX=0.5;entryY=0;entryDx=0;entryDy=0;fontSize=15;" edge="1" parent="EddqPIEF-tHgntxyQFSr-1" source="OrX4B0yz2qmsGkPr_7qH-10" target="OrX4B0yz2qmsGkPr_7qH-11">
          <mxGeometry relative="1" as="geometry" />
        </mxCell>
        <mxCell id="OrX4B0yz2qmsGkPr_7qH-10" value="Build an order" style="rounded=0;whiteSpace=wrap;html=1;fontSize=15;fillColor=#f5f5f5;strokeColor=#666666;fontColor=#333333;" vertex="1" parent="EddqPIEF-tHgntxyQFSr-1">
          <mxGeometry x="1110" y="450" width="390" height="50" as="geometry" />
        </mxCell>
        <mxCell id="OrX4B0yz2qmsGkPr_7qH-11" value="Save the order" style="rounded=0;whiteSpace=wrap;html=1;fontSize=15;fillColor=#f5f5f5;strokeColor=#666666;fontColor=#333333;" vertex="1" parent="EddqPIEF-tHgntxyQFSr-1">
          <mxGeometry x="1110" y="540" width="390" height="50" as="geometry" />
        </mxCell>
        <mxCell id="OrX4B0yz2qmsGkPr_7qH-12" value="Wait..." style="text;html=1;strokeColor=none;fillColor=none;align=left;verticalAlign=middle;whiteSpace=wrap;rounded=0;fontSize=15;fontStyle=2" vertex="1" parent="EddqPIEF-tHgntxyQFSr-1">
          <mxGeometry x="1310" y="260" width="140" height="20" as="geometry" />
        </mxCell>
        <mxCell id="OrX4B0yz2qmsGkPr_7qH-13" value="Wait..." style="text;html=1;strokeColor=none;fillColor=none;align=left;verticalAlign=middle;whiteSpace=wrap;rounded=0;fontSize=15;fontStyle=2" vertex="1" parent="EddqPIEF-tHgntxyQFSr-1">
          <mxGeometry x="1310" y="353" width="140" height="20" as="geometry" />
        </mxCell>
        <mxCell id="OrX4B0yz2qmsGkPr_7qH-14" value="Wait..." style="text;html=1;strokeColor=none;fillColor=none;align=left;verticalAlign=middle;whiteSpace=wrap;rounded=0;fontSize=15;fontStyle=2" vertex="1" parent="EddqPIEF-tHgntxyQFSr-1">
          <mxGeometry x="1310" y="510" width="140" height="20" as="geometry" />
        </mxCell>
        <mxCell id="OrX4B0yz2qmsGkPr_7qH-16" style="edgeStyle=orthogonalEdgeStyle;rounded=0;orthogonalLoop=1;jettySize=auto;html=1;exitX=0.5;exitY=1;exitDx=0;exitDy=0;fontSize=15;" edge="1" parent="EddqPIEF-tHgntxyQFSr-1" source="OrX4B0yz2qmsGkPr_7qH-17" target="OrX4B0yz2qmsGkPr_7qH-19">
          <mxGeometry relative="1" as="geometry" />
        </mxCell>
        <mxCell id="OrX4B0yz2qmsGkPr_7qH-17" value="Run a query to find the ticket the user is trying to order" style="rounded=0;whiteSpace=wrap;html=1;fontSize=15;fillColor=#f5f5f5;strokeColor=#666666;fontColor=#333333;" vertex="1" parent="EddqPIEF-tHgntxyQFSr-1">
          <mxGeometry x="1530" y="250" width="390" height="50" as="geometry" />
        </mxCell>
        <mxCell id="OrX4B0yz2qmsGkPr_7qH-18" style="edgeStyle=orthogonalEdgeStyle;rounded=0;orthogonalLoop=1;jettySize=auto;html=1;exitX=0.5;exitY=1;exitDx=0;exitDy=0;fontSize=15;" edge="1" parent="EddqPIEF-tHgntxyQFSr-1" source="OrX4B0yz2qmsGkPr_7qH-19" target="OrX4B0yz2qmsGkPr_7qH-20">
          <mxGeometry relative="1" as="geometry" />
        </mxCell>
        <mxCell id="OrX4B0yz2qmsGkPr_7qH-19" value="Run a query to see if there is an un-cancelled order referencing this ticket" style="rounded=0;whiteSpace=wrap;html=1;fontSize=15;fillColor=#f5f5f5;strokeColor=#666666;fontColor=#333333;" vertex="1" parent="EddqPIEF-tHgntxyQFSr-1">
          <mxGeometry x="1530" y="340" width="390" height="50" as="geometry" />
        </mxCell>
        <mxCell id="OrX4B0yz2qmsGkPr_7qH-20" value="Calculate expiration" style="rounded=0;whiteSpace=wrap;html=1;fontSize=15;fillColor=#f5f5f5;strokeColor=#666666;fontColor=#333333;" vertex="1" parent="EddqPIEF-tHgntxyQFSr-1">
          <mxGeometry x="1530" y="440" width="390" height="50" as="geometry" />
        </mxCell>
        <mxCell id="OrX4B0yz2qmsGkPr_7qH-21" style="edgeStyle=orthogonalEdgeStyle;rounded=0;orthogonalLoop=1;jettySize=auto;html=1;exitX=0.5;exitY=1;exitDx=0;exitDy=0;entryX=0.5;entryY=0;entryDx=0;entryDy=0;fontSize=15;" edge="1" parent="EddqPIEF-tHgntxyQFSr-1" source="OrX4B0yz2qmsGkPr_7qH-22" target="OrX4B0yz2qmsGkPr_7qH-23">
          <mxGeometry relative="1" as="geometry" />
        </mxCell>
        <mxCell id="OrX4B0yz2qmsGkPr_7qH-22" value="Build an order" style="rounded=0;whiteSpace=wrap;html=1;fontSize=15;fillColor=#f5f5f5;strokeColor=#666666;fontColor=#333333;" vertex="1" parent="EddqPIEF-tHgntxyQFSr-1">
          <mxGeometry x="1530" y="500" width="390" height="50" as="geometry" />
        </mxCell>
        <mxCell id="OrX4B0yz2qmsGkPr_7qH-23" value="Save the order" style="rounded=0;whiteSpace=wrap;html=1;fontSize=15;fillColor=#f5f5f5;strokeColor=#666666;fontColor=#333333;" vertex="1" parent="EddqPIEF-tHgntxyQFSr-1">
          <mxGeometry x="1530" y="590" width="390" height="50" as="geometry" />
        </mxCell>
        <mxCell id="OrX4B0yz2qmsGkPr_7qH-24" value="Wait..." style="text;html=1;strokeColor=none;fillColor=none;align=left;verticalAlign=middle;whiteSpace=wrap;rounded=0;fontSize=15;fontStyle=2" vertex="1" parent="EddqPIEF-tHgntxyQFSr-1">
          <mxGeometry x="1730" y="310" width="140" height="20" as="geometry" />
        </mxCell>
        <mxCell id="OrX4B0yz2qmsGkPr_7qH-25" value="Wait..." style="text;html=1;strokeColor=none;fillColor=none;align=left;verticalAlign=middle;whiteSpace=wrap;rounded=0;fontSize=15;fontStyle=2" vertex="1" parent="EddqPIEF-tHgntxyQFSr-1">
          <mxGeometry x="1730" y="403" width="140" height="20" as="geometry" />
        </mxCell>
        <mxCell id="OrX4B0yz2qmsGkPr_7qH-26" value="Wait..." style="text;html=1;strokeColor=none;fillColor=none;align=left;verticalAlign=middle;whiteSpace=wrap;rounded=0;fontSize=15;fontStyle=2" vertex="1" parent="EddqPIEF-tHgntxyQFSr-1">
          <mxGeometry x="1730" y="560" width="140" height="20" as="geometry" />
        </mxCell>
        <mxCell id="OrX4B0yz2qmsGkPr_7qH-28" value="Request #2" style="text;html=1;strokeColor=none;fillColor=none;align=center;verticalAlign=middle;whiteSpace=wrap;rounded=0;fontSize=24;fontStyle=1" vertex="1" parent="EddqPIEF-tHgntxyQFSr-1">
          <mxGeometry x="1150" y="160" width="310" height="40" as="geometry" />
        </mxCell>
        <mxCell id="OrX4B0yz2qmsGkPr_7qH-29" value="Request #3" style="text;html=1;strokeColor=none;fillColor=none;align=center;verticalAlign=middle;whiteSpace=wrap;rounded=0;fontSize=24;fontStyle=1" vertex="1" parent="EddqPIEF-tHgntxyQFSr-1">
          <mxGeometry x="1570" y="210" width="310" height="40" as="geometry" />
        </mxCell>
      </root>
    </mxGraphModel>
  </diagram>
  <diagram id="2YDWygM2HVHudwR7cBr5" name="05 - id">
    <mxGraphModel dx="715" dy="352" grid="1" gridSize="10" guides="1" tooltips="1" connect="1" arrows="1" fold="1" page="1" pageScale="1" pageWidth="1920" pageHeight="1200" math="0" shadow="0">
      <root>
        <mxCell id="MelGRbkYQFQFAfYQGmcL-0" />
        <mxCell id="MelGRbkYQFQFAfYQGmcL-1" parent="MelGRbkYQFQFAfYQGmcL-0" />
        <mxCell id="qLCfLcE0eBEQ5VS2SH1Z-0" value="Tickets" style="rounded=0;whiteSpace=wrap;html=1;fillColor=#f5f5f5;strokeColor=#666666;fontColor=#333333;fontStyle=1;fontSize=16;" vertex="1" parent="MelGRbkYQFQFAfYQGmcL-1">
          <mxGeometry x="760" y="300" width="180" height="30" as="geometry" />
        </mxCell>
        <mxCell id="qLCfLcE0eBEQ5VS2SH1Z-1" value="" style="rounded=0;whiteSpace=wrap;html=1;fillColor=#f5f5f5;strokeColor=#666666;fontColor=#333333;" vertex="1" parent="MelGRbkYQFQFAfYQGmcL-1">
          <mxGeometry x="760" y="330" width="180" height="100" as="geometry" />
        </mxCell>
        <mxCell id="qLCfLcE0eBEQ5VS2SH1Z-2" value="TicketId" style="rounded=0;whiteSpace=wrap;html=1;fontSize=10;align=center;fillColor=#dae8fc;strokeColor=#6c8ebf;" vertex="1" parent="MelGRbkYQFQFAfYQGmcL-1">
          <mxGeometry x="775" y="340" width="60" height="20" as="geometry" />
        </mxCell>
        <mxCell id="qLCfLcE0eBEQ5VS2SH1Z-3" value="&#39;CZQ&#39;" style="rounded=0;whiteSpace=wrap;html=1;fontSize=15;align=center;" vertex="1" parent="MelGRbkYQFQFAfYQGmcL-1">
          <mxGeometry x="775" y="360" width="60" height="45" as="geometry" />
        </mxCell>
        <mxCell id="qLCfLcE0eBEQ5VS2SH1Z-4" value="locked" style="rounded=0;whiteSpace=wrap;html=1;fontSize=10;align=center;fillColor=#dae8fc;strokeColor=#6c8ebf;" vertex="1" parent="MelGRbkYQFQFAfYQGmcL-1">
          <mxGeometry x="835" y="340" width="90" height="20" as="geometry" />
        </mxCell>
        <mxCell id="qLCfLcE0eBEQ5VS2SH1Z-5" value="false" style="rounded=0;whiteSpace=wrap;html=1;fontSize=15;align=center;" vertex="1" parent="MelGRbkYQFQFAfYQGmcL-1">
          <mxGeometry x="835" y="360" width="90" height="45" as="geometry" />
        </mxCell>
        <mxCell id="qLCfLcE0eBEQ5VS2SH1Z-8" value="&lt;i&gt;Locking a Ticket to prevent editing&lt;/i&gt;" style="text;html=1;strokeColor=none;fillColor=none;align=center;verticalAlign=middle;whiteSpace=wrap;rounded=0;fontSize=15;" vertex="1" parent="MelGRbkYQFQFAfYQGmcL-1">
          <mxGeometry x="750" y="440" width="200" height="20" as="geometry" />
        </mxCell>
      </root>
    </mxGraphModel>
  </diagram>
  <diagram name="06 - id" id="YqldKKeF-NBdjQdGpO5E">
    <mxGraphModel dx="715" dy="352" grid="1" gridSize="10" guides="1" tooltips="1" connect="1" arrows="1" fold="1" page="1" pageScale="1" pageWidth="1920" pageHeight="1200" math="0" shadow="0">
      <root>
        <mxCell id="tXj_ZmlyB7Fi7Bm4LI1n-0" />
        <mxCell id="tXj_ZmlyB7Fi7Bm4LI1n-1" parent="tXj_ZmlyB7Fi7Bm4LI1n-0" />
        <mxCell id="tXj_ZmlyB7Fi7Bm4LI1n-2" value="Tickets" style="rounded=0;whiteSpace=wrap;html=1;fillColor=#f5f5f5;strokeColor=#666666;fontColor=#333333;fontStyle=1;fontSize=16;" vertex="1" parent="tXj_ZmlyB7Fi7Bm4LI1n-1">
          <mxGeometry x="750" y="300" width="180" height="30" as="geometry" />
        </mxCell>
        <mxCell id="tXj_ZmlyB7Fi7Bm4LI1n-3" value="" style="rounded=0;whiteSpace=wrap;html=1;fillColor=#f5f5f5;strokeColor=#666666;fontColor=#333333;" vertex="1" parent="tXj_ZmlyB7Fi7Bm4LI1n-1">
          <mxGeometry x="750" y="330" width="180" height="210" as="geometry" />
        </mxCell>
        <mxCell id="tXj_ZmlyB7Fi7Bm4LI1n-4" value="TicketId" style="rounded=0;whiteSpace=wrap;html=1;fontSize=10;align=center;fillColor=#dae8fc;strokeColor=#6c8ebf;" vertex="1" parent="tXj_ZmlyB7Fi7Bm4LI1n-1">
          <mxGeometry x="765" y="340" width="60" height="20" as="geometry" />
        </mxCell>
        <mxCell id="tXj_ZmlyB7Fi7Bm4LI1n-5" value="&#39;CZQ&#39;" style="rounded=0;whiteSpace=wrap;html=1;fontSize=15;align=center;" vertex="1" parent="tXj_ZmlyB7Fi7Bm4LI1n-1">
          <mxGeometry x="765" y="360" width="60" height="45" as="geometry" />
        </mxCell>
        <mxCell id="tXj_ZmlyB7Fi7Bm4LI1n-6" value="locked" style="rounded=0;whiteSpace=wrap;html=1;fontSize=10;align=center;fillColor=#dae8fc;strokeColor=#6c8ebf;" vertex="1" parent="tXj_ZmlyB7Fi7Bm4LI1n-1">
          <mxGeometry x="825" y="340" width="90" height="20" as="geometry" />
        </mxCell>
        <mxCell id="tXj_ZmlyB7Fi7Bm4LI1n-7" value="true" style="rounded=0;whiteSpace=wrap;html=1;fontSize=15;align=center;" vertex="1" parent="tXj_ZmlyB7Fi7Bm4LI1n-1">
          <mxGeometry x="825" y="360" width="90" height="45" as="geometry" />
        </mxCell>
        <mxCell id="oroT9s-HlvWnLN3RPhdq-3" style="edgeStyle=orthogonalEdgeStyle;rounded=0;orthogonalLoop=1;jettySize=auto;html=1;exitX=1;exitY=0.25;exitDx=0;exitDy=0;strokeWidth=1;fontSize=15;" edge="1" parent="tXj_ZmlyB7Fi7Bm4LI1n-1" source="tXj_ZmlyB7Fi7Bm4LI1n-9">
          <mxGeometry relative="1" as="geometry">
            <mxPoint x="750" y="392.28571428571433" as="targetPoint" />
          </mxGeometry>
        </mxCell>
        <mxCell id="tXj_ZmlyB7Fi7Bm4LI1n-9" value="User who owns the ticket" style="rounded=0;whiteSpace=wrap;html=1;fontSize=15;align=center;fillColor=#d5e8d4;strokeColor=#82b366;fontStyle=1" vertex="1" parent="tXj_ZmlyB7Fi7Bm4LI1n-1">
          <mxGeometry x="490" y="353" width="120" height="157" as="geometry" />
        </mxCell>
        <mxCell id="tXj_ZmlyB7Fi7Bm4LI1n-11" value="&lt;i style=&quot;font-size: 13px;&quot;&gt;Is someone buying my ticket?&lt;/i&gt;" style="text;html=1;strokeColor=none;fillColor=none;align=center;verticalAlign=middle;whiteSpace=wrap;rounded=0;fontSize=13;" vertex="1" parent="tXj_ZmlyB7Fi7Bm4LI1n-1">
          <mxGeometry x="620" y="367" width="112" height="20" as="geometry" />
        </mxCell>
        <mxCell id="oroT9s-HlvWnLN3RPhdq-4" style="edgeStyle=orthogonalEdgeStyle;rounded=0;orthogonalLoop=1;jettySize=auto;html=1;exitX=1;exitY=0.25;exitDx=0;exitDy=0;strokeWidth=1;fontSize=15;" edge="1" parent="tXj_ZmlyB7Fi7Bm4LI1n-1">
          <mxGeometry relative="1" as="geometry">
            <mxPoint x="610" y="470" as="targetPoint" />
            <mxPoint x="750" y="470.03571428571433" as="sourcePoint" />
          </mxGeometry>
        </mxCell>
        <mxCell id="oroT9s-HlvWnLN3RPhdq-5" value="&lt;i style=&quot;font-size: 13px&quot;&gt;Yes, but I don&#39;t know who or what the status of the order is&lt;/i&gt;" style="text;html=1;strokeColor=none;fillColor=none;align=center;verticalAlign=middle;whiteSpace=wrap;rounded=0;fontSize=13;" vertex="1" parent="tXj_ZmlyB7Fi7Bm4LI1n-1">
          <mxGeometry x="620" y="490" width="112" height="20" as="geometry" />
        </mxCell>
      </root>
    </mxGraphModel>
  </diagram>
  <diagram name="07 - tix" id="80RjVk7WHxt6PNYNY9n7">
    <mxGraphModel dx="834" dy="411" grid="1" gridSize="10" guides="1" tooltips="1" connect="1" arrows="1" fold="1" page="1" pageScale="1" pageWidth="1920" pageHeight="1200" math="0" shadow="0">
      <root>
        <mxCell id="pu91mSxBvjFOMebvG6wu-0" />
        <mxCell id="pu91mSxBvjFOMebvG6wu-1" parent="pu91mSxBvjFOMebvG6wu-0" />
        <mxCell id="pu91mSxBvjFOMebvG6wu-2" value="Tickets" style="rounded=0;whiteSpace=wrap;html=1;fillColor=#f5f5f5;strokeColor=#666666;fontColor=#333333;fontStyle=1;fontSize=16;" vertex="1" parent="pu91mSxBvjFOMebvG6wu-1">
          <mxGeometry x="750" y="340" width="180" height="30" as="geometry" />
        </mxCell>
        <mxCell id="pu91mSxBvjFOMebvG6wu-3" value="" style="rounded=0;whiteSpace=wrap;html=1;fillColor=#f5f5f5;strokeColor=#666666;fontColor=#333333;" vertex="1" parent="pu91mSxBvjFOMebvG6wu-1">
          <mxGeometry x="750" y="370" width="180" height="140" as="geometry" />
        </mxCell>
        <mxCell id="pu91mSxBvjFOMebvG6wu-4" value="TicketId" style="rounded=0;whiteSpace=wrap;html=1;fontSize=10;align=center;fillColor=#dae8fc;strokeColor=#6c8ebf;" vertex="1" parent="pu91mSxBvjFOMebvG6wu-1">
          <mxGeometry x="765" y="380" width="60" height="20" as="geometry" />
        </mxCell>
        <mxCell id="pu91mSxBvjFOMebvG6wu-5" value="&#39;CZQ&#39;" style="rounded=0;whiteSpace=wrap;html=1;fontSize=15;align=center;" vertex="1" parent="pu91mSxBvjFOMebvG6wu-1">
          <mxGeometry x="765" y="400" width="60" height="45" as="geometry" />
        </mxCell>
        <mxCell id="pu91mSxBvjFOMebvG6wu-6" value="orderId" style="rounded=0;whiteSpace=wrap;html=1;fontSize=13;align=center;fillColor=#dae8fc;strokeColor=#6c8ebf;fontStyle=1" vertex="1" parent="pu91mSxBvjFOMebvG6wu-1">
          <mxGeometry x="825" y="380" width="90" height="20" as="geometry" />
        </mxCell>
        <mxCell id="pu91mSxBvjFOMebvG6wu-7" value="&#39;ADS&#39;" style="rounded=0;whiteSpace=wrap;html=1;fontSize=15;align=center;" vertex="1" parent="pu91mSxBvjFOMebvG6wu-1">
          <mxGeometry x="825" y="400" width="90" height="45" as="geometry" />
        </mxCell>
        <mxCell id="pu91mSxBvjFOMebvG6wu-8" style="edgeStyle=orthogonalEdgeStyle;rounded=0;orthogonalLoop=1;jettySize=auto;html=1;exitX=1;exitY=0.25;exitDx=0;exitDy=0;strokeWidth=1;fontSize=15;" edge="1" parent="pu91mSxBvjFOMebvG6wu-1" source="pu91mSxBvjFOMebvG6wu-9">
          <mxGeometry relative="1" as="geometry">
            <mxPoint x="750" y="392.28571428571433" as="targetPoint" />
            <Array as="points">
              <mxPoint x="610" y="392" />
              <mxPoint x="680" y="392" />
            </Array>
          </mxGeometry>
        </mxCell>
        <mxCell id="pu91mSxBvjFOMebvG6wu-10" value="&lt;i style=&quot;font-size: 13px;&quot;&gt;Is someone buying my ticket?&lt;/i&gt;" style="text;html=1;strokeColor=none;fillColor=none;align=center;verticalAlign=middle;whiteSpace=wrap;rounded=0;fontSize=13;" vertex="1" parent="pu91mSxBvjFOMebvG6wu-1">
          <mxGeometry x="620" y="367" width="112" height="20" as="geometry" />
        </mxCell>
        <mxCell id="pu91mSxBvjFOMebvG6wu-11" style="edgeStyle=orthogonalEdgeStyle;rounded=0;orthogonalLoop=1;jettySize=auto;html=1;exitX=1;exitY=0.25;exitDx=0;exitDy=0;strokeWidth=1;fontSize=15;" edge="1" parent="pu91mSxBvjFOMebvG6wu-1">
          <mxGeometry relative="1" as="geometry">
            <mxPoint x="610" y="470" as="targetPoint" />
            <mxPoint x="750" y="470.03571428571433" as="sourcePoint" />
          </mxGeometry>
        </mxCell>
        <mxCell id="pu91mSxBvjFOMebvG6wu-12" value="&lt;i style=&quot;font-size: 13px&quot;&gt;Yes, the order ID is ADS&lt;/i&gt;" style="text;html=1;strokeColor=none;fillColor=none;align=center;verticalAlign=middle;whiteSpace=wrap;rounded=0;fontSize=13;" vertex="1" parent="pu91mSxBvjFOMebvG6wu-1">
          <mxGeometry x="620" y="480" width="112" height="20" as="geometry" />
        </mxCell>
        <mxCell id="pu91mSxBvjFOMebvG6wu-13" value="Orders" style="rounded=0;whiteSpace=wrap;html=1;fillColor=#f5f5f5;strokeColor=#666666;fontColor=#333333;fontStyle=1;fontSize=16;" vertex="1" parent="pu91mSxBvjFOMebvG6wu-1">
          <mxGeometry x="750" y="540" width="250" height="30" as="geometry" />
        </mxCell>
        <mxCell id="pu91mSxBvjFOMebvG6wu-14" value="" style="rounded=0;whiteSpace=wrap;html=1;fillColor=#f5f5f5;strokeColor=#666666;fontColor=#333333;" vertex="1" parent="pu91mSxBvjFOMebvG6wu-1">
          <mxGeometry x="750" y="570" width="250" height="140" as="geometry" />
        </mxCell>
        <mxCell id="pu91mSxBvjFOMebvG6wu-15" value="OrderId" style="rounded=0;whiteSpace=wrap;html=1;fontSize=10;align=center;fillColor=#dae8fc;strokeColor=#6c8ebf;" vertex="1" parent="pu91mSxBvjFOMebvG6wu-1">
          <mxGeometry x="765" y="580" width="60" height="20" as="geometry" />
        </mxCell>
        <mxCell id="pu91mSxBvjFOMebvG6wu-16" value="ADS" style="rounded=0;whiteSpace=wrap;html=1;fontSize=15;align=center;" vertex="1" parent="pu91mSxBvjFOMebvG6wu-1">
          <mxGeometry x="765" y="600" width="60" height="45" as="geometry" />
        </mxCell>
        <mxCell id="pu91mSxBvjFOMebvG6wu-17" value="&lt;span style=&quot;font-weight: 400&quot;&gt;status&lt;/span&gt;" style="rounded=0;whiteSpace=wrap;html=1;fontSize=13;align=center;fillColor=#dae8fc;strokeColor=#6c8ebf;fontStyle=1" vertex="1" parent="pu91mSxBvjFOMebvG6wu-1">
          <mxGeometry x="825" y="580" width="165" height="20" as="geometry" />
        </mxCell>
        <mxCell id="pu91mSxBvjFOMebvG6wu-18" value="AwaitingPayment" style="rounded=0;whiteSpace=wrap;html=1;fontSize=15;align=center;" vertex="1" parent="pu91mSxBvjFOMebvG6wu-1">
          <mxGeometry x="825" y="600" width="165" height="45" as="geometry" />
        </mxCell>
        <mxCell id="pu91mSxBvjFOMebvG6wu-19" style="edgeStyle=orthogonalEdgeStyle;rounded=0;orthogonalLoop=1;jettySize=auto;html=1;exitX=1;exitY=0.25;exitDx=0;exitDy=0;strokeWidth=1;fontSize=15;" edge="1" parent="pu91mSxBvjFOMebvG6wu-1">
          <mxGeometry relative="1" as="geometry">
            <mxPoint x="750" y="608.9057142857143" as="targetPoint" />
            <mxPoint x="610.0000000000002" y="661.37" as="sourcePoint" />
            <Array as="points">
              <mxPoint x="610" y="608.62" />
              <mxPoint x="680" y="608.62" />
            </Array>
          </mxGeometry>
        </mxCell>
        <mxCell id="pu91mSxBvjFOMebvG6wu-20" value="&lt;i style=&quot;font-size: 13px&quot;&gt;What&#39;s the status of order ADS?&lt;/i&gt;" style="text;html=1;strokeColor=none;fillColor=none;align=center;verticalAlign=middle;whiteSpace=wrap;rounded=0;fontSize=13;" vertex="1" parent="pu91mSxBvjFOMebvG6wu-1">
          <mxGeometry x="620" y="582.62" width="112" height="20" as="geometry" />
        </mxCell>
        <mxCell id="pu91mSxBvjFOMebvG6wu-9" value="User who owns the ticket" style="rounded=0;whiteSpace=wrap;html=1;fontSize=15;align=center;fillColor=#d5e8d4;strokeColor=#82b366;fontStyle=1" vertex="1" parent="pu91mSxBvjFOMebvG6wu-1">
          <mxGeometry x="490" y="353" width="120" height="367" as="geometry" />
        </mxCell>
      </root>
    </mxGraphModel>
  </diagram>
  <diagram id="VV1cY8_oUTWGvHU5lJM7" name="08 - confirm">
    <mxGraphModel dx="910" dy="448" grid="1" gridSize="10" guides="1" tooltips="1" connect="1" arrows="1" fold="1" page="1" pageScale="1" pageWidth="1920" pageHeight="1200" math="0" shadow="0">
      <root>
        <mxCell id="5YIi9FHMeylhzpsiHX5x-0" />
        <mxCell id="5YIi9FHMeylhzpsiHX5x-1" parent="5YIi9FHMeylhzpsiHX5x-0" />
        <mxCell id="y9dAD0OboRxPHN5k7Vha-0" value="Tickets" style="rounded=0;whiteSpace=wrap;html=1;fillColor=#f5f5f5;strokeColor=#666666;fontColor=#333333;fontStyle=1;fontSize=16;" vertex="1" parent="5YIi9FHMeylhzpsiHX5x-1">
          <mxGeometry x="670" y="420" width="450" height="30" as="geometry" />
        </mxCell>
        <mxCell id="y9dAD0OboRxPHN5k7Vha-1" value="" style="rounded=0;whiteSpace=wrap;html=1;fillColor=#f5f5f5;strokeColor=#666666;fontColor=#333333;" vertex="1" parent="5YIi9FHMeylhzpsiHX5x-1">
          <mxGeometry x="670" y="450" width="450" height="90" as="geometry" />
        </mxCell>
        <mxCell id="y9dAD0OboRxPHN5k7Vha-2" value="TicketId" style="rounded=0;whiteSpace=wrap;html=1;fontSize=10;align=center;fillColor=#dae8fc;strokeColor=#6c8ebf;" vertex="1" parent="5YIi9FHMeylhzpsiHX5x-1">
          <mxGeometry x="685" y="460" width="60" height="20" as="geometry" />
        </mxCell>
        <mxCell id="y9dAD0OboRxPHN5k7Vha-3" value="&#39;CZQ&#39;" style="rounded=0;whiteSpace=wrap;html=1;fontSize=15;align=center;" vertex="1" parent="5YIi9FHMeylhzpsiHX5x-1">
          <mxGeometry x="685" y="480" width="60" height="45" as="geometry" />
        </mxCell>
        <mxCell id="y9dAD0OboRxPHN5k7Vha-4" value="version" style="rounded=0;whiteSpace=wrap;html=1;fontSize=13;align=center;fillColor=#dae8fc;strokeColor=#6c8ebf;fontStyle=0" vertex="1" parent="5YIi9FHMeylhzpsiHX5x-1">
          <mxGeometry x="925" y="460" width="90" height="20" as="geometry" />
        </mxCell>
        <mxCell id="y9dAD0OboRxPHN5k7Vha-5" value="1" style="rounded=0;whiteSpace=wrap;html=1;fontSize=15;align=center;" vertex="1" parent="5YIi9FHMeylhzpsiHX5x-1">
          <mxGeometry x="925" y="480" width="90" height="45" as="geometry" />
        </mxCell>
        <mxCell id="y9dAD0OboRxPHN5k7Vha-7" value="title" style="rounded=0;whiteSpace=wrap;html=1;fontSize=13;align=center;fillColor=#dae8fc;strokeColor=#6c8ebf;fontStyle=0" vertex="1" parent="5YIi9FHMeylhzpsiHX5x-1">
          <mxGeometry x="745" y="460" width="90" height="20" as="geometry" />
        </mxCell>
        <mxCell id="y9dAD0OboRxPHN5k7Vha-8" value="concert" style="rounded=0;whiteSpace=wrap;html=1;fontSize=15;align=center;" vertex="1" parent="5YIi9FHMeylhzpsiHX5x-1">
          <mxGeometry x="745" y="480" width="90" height="45" as="geometry" />
        </mxCell>
        <mxCell id="y9dAD0OboRxPHN5k7Vha-9" value="price" style="rounded=0;whiteSpace=wrap;html=1;fontSize=13;align=center;fillColor=#dae8fc;strokeColor=#6c8ebf;fontStyle=0" vertex="1" parent="5YIi9FHMeylhzpsiHX5x-1">
          <mxGeometry x="835" y="460" width="90" height="20" as="geometry" />
        </mxCell>
        <mxCell id="y9dAD0OboRxPHN5k7Vha-10" value="20" style="rounded=0;whiteSpace=wrap;html=1;fontSize=15;align=center;" vertex="1" parent="5YIi9FHMeylhzpsiHX5x-1">
          <mxGeometry x="835" y="480" width="90" height="45" as="geometry" />
        </mxCell>
        <mxCell id="y9dAD0OboRxPHN5k7Vha-11" value="orderId" style="rounded=0;whiteSpace=wrap;html=1;fontSize=13;align=center;fillColor=#dae8fc;strokeColor=#6c8ebf;fontStyle=0" vertex="1" parent="5YIi9FHMeylhzpsiHX5x-1">
          <mxGeometry x="1015" y="460" width="90" height="20" as="geometry" />
        </mxCell>
        <mxCell id="y9dAD0OboRxPHN5k7Vha-12" value="ADS" style="rounded=0;whiteSpace=wrap;html=1;fontSize=15;align=center;" vertex="1" parent="5YIi9FHMeylhzpsiHX5x-1">
          <mxGeometry x="1015" y="480" width="90" height="45" as="geometry" />
        </mxCell>
        <mxCell id="y9dAD0OboRxPHN5k7Vha-14" style="edgeStyle=orthogonalEdgeStyle;rounded=0;orthogonalLoop=1;jettySize=auto;html=1;exitX=0.5;exitY=1;exitDx=0;exitDy=0;entryX=0.5;entryY=0;entryDx=0;entryDy=0;strokeWidth=1;fontSize=13;" edge="1" parent="5YIi9FHMeylhzpsiHX5x-1" source="y9dAD0OboRxPHN5k7Vha-13" target="y9dAD0OboRxPHN5k7Vha-0">
          <mxGeometry relative="1" as="geometry" />
        </mxCell>
        <mxCell id="y9dAD0OboRxPHN5k7Vha-13" value="&lt;b&gt;order:created&lt;/b&gt;&lt;br&gt;id: &#39;ADS&#39;, ticketId: &#39;CZQ&#39;" style="rounded=0;whiteSpace=wrap;html=1;fontSize=13;align=center;fillColor=#f8cecc;strokeColor=#b85450;" vertex="1" parent="5YIi9FHMeylhzpsiHX5x-1">
          <mxGeometry x="810" y="320" width="170" height="50" as="geometry" />
        </mxCell>
        <mxCell id="4npTPkDRy14g2QHaNggo-0" value="&lt;font style=&quot;font-size: 25px&quot;&gt;Orders&lt;/font&gt; Service" style="rounded=0;whiteSpace=wrap;html=1;fillColor=#f5f5f5;strokeColor=#666666;fontColor=#333333;fontStyle=1;fontSize=16;" vertex="1" parent="5YIi9FHMeylhzpsiHX5x-1">
          <mxGeometry x="715" y="160" width="360" height="30" as="geometry" />
        </mxCell>
        <mxCell id="4npTPkDRy14g2QHaNggo-12" style="edgeStyle=orthogonalEdgeStyle;rounded=0;orthogonalLoop=1;jettySize=auto;html=1;exitX=0.5;exitY=1;exitDx=0;exitDy=0;entryX=0.5;entryY=0;entryDx=0;entryDy=0;strokeWidth=1;fontSize=13;" edge="1" parent="5YIi9FHMeylhzpsiHX5x-1" source="4npTPkDRy14g2QHaNggo-1" target="y9dAD0OboRxPHN5k7Vha-13">
          <mxGeometry relative="1" as="geometry" />
        </mxCell>
        <mxCell id="4npTPkDRy14g2QHaNggo-1" value="" style="rounded=0;whiteSpace=wrap;html=1;fillColor=#f5f5f5;strokeColor=#666666;fontColor=#333333;" vertex="1" parent="5YIi9FHMeylhzpsiHX5x-1">
          <mxGeometry x="715" y="190" width="360" height="90" as="geometry" />
        </mxCell>
        <mxCell id="4npTPkDRy14g2QHaNggo-2" value="TicketId" style="rounded=0;whiteSpace=wrap;html=1;fontSize=10;align=center;fillColor=#dae8fc;strokeColor=#6c8ebf;" vertex="1" parent="5YIi9FHMeylhzpsiHX5x-1">
          <mxGeometry x="730" y="200" width="60" height="20" as="geometry" />
        </mxCell>
        <mxCell id="4npTPkDRy14g2QHaNggo-3" value="&#39;CZQ&#39;" style="rounded=0;whiteSpace=wrap;html=1;fontSize=15;align=center;" vertex="1" parent="5YIi9FHMeylhzpsiHX5x-1">
          <mxGeometry x="730" y="220" width="60" height="45" as="geometry" />
        </mxCell>
        <mxCell id="4npTPkDRy14g2QHaNggo-4" value="version" style="rounded=0;whiteSpace=wrap;html=1;fontSize=13;align=center;fillColor=#dae8fc;strokeColor=#6c8ebf;fontStyle=0" vertex="1" parent="5YIi9FHMeylhzpsiHX5x-1">
          <mxGeometry x="970" y="200" width="90" height="20" as="geometry" />
        </mxCell>
        <mxCell id="4npTPkDRy14g2QHaNggo-5" value="0" style="rounded=0;whiteSpace=wrap;html=1;fontSize=15;align=center;" vertex="1" parent="5YIi9FHMeylhzpsiHX5x-1">
          <mxGeometry x="970" y="220" width="90" height="45" as="geometry" />
        </mxCell>
        <mxCell id="4npTPkDRy14g2QHaNggo-6" value="title" style="rounded=0;whiteSpace=wrap;html=1;fontSize=13;align=center;fillColor=#dae8fc;strokeColor=#6c8ebf;fontStyle=0" vertex="1" parent="5YIi9FHMeylhzpsiHX5x-1">
          <mxGeometry x="790" y="200" width="90" height="20" as="geometry" />
        </mxCell>
        <mxCell id="4npTPkDRy14g2QHaNggo-7" value="concert" style="rounded=0;whiteSpace=wrap;html=1;fontSize=15;align=center;" vertex="1" parent="5YIi9FHMeylhzpsiHX5x-1">
          <mxGeometry x="790" y="220" width="90" height="45" as="geometry" />
        </mxCell>
        <mxCell id="4npTPkDRy14g2QHaNggo-8" value="price" style="rounded=0;whiteSpace=wrap;html=1;fontSize=13;align=center;fillColor=#dae8fc;strokeColor=#6c8ebf;fontStyle=0" vertex="1" parent="5YIi9FHMeylhzpsiHX5x-1">
          <mxGeometry x="880" y="200" width="90" height="20" as="geometry" />
        </mxCell>
        <mxCell id="4npTPkDRy14g2QHaNggo-9" value="20" style="rounded=0;whiteSpace=wrap;html=1;fontSize=15;align=center;" vertex="1" parent="5YIi9FHMeylhzpsiHX5x-1">
          <mxGeometry x="880" y="220" width="90" height="45" as="geometry" />
        </mxCell>
      </root>
    </mxGraphModel>
  </diagram>
  <diagram name="09 - conf" id="BuK37Z4x-F9_ca8dmGmu">
    <mxGraphModel dx="751" dy="370" grid="1" gridSize="10" guides="1" tooltips="1" connect="1" arrows="1" fold="1" page="1" pageScale="1" pageWidth="1920" pageHeight="1200" math="0" shadow="0">
      <root>
        <mxCell id="EeFjgTn4-AB8cj1WIgyt-0" />
        <mxCell id="EeFjgTn4-AB8cj1WIgyt-1" parent="EeFjgTn4-AB8cj1WIgyt-0" />
        <mxCell id="EeFjgTn4-AB8cj1WIgyt-2" value="Tickets" style="rounded=0;whiteSpace=wrap;html=1;fillColor=#f5f5f5;strokeColor=#666666;fontColor=#333333;fontStyle=1;fontSize=16;" vertex="1" parent="EeFjgTn4-AB8cj1WIgyt-1">
          <mxGeometry x="670" y="260" width="450" height="30" as="geometry" />
        </mxCell>
        <mxCell id="EeFjgTn4-AB8cj1WIgyt-3" value="" style="rounded=0;whiteSpace=wrap;html=1;fillColor=#f5f5f5;strokeColor=#666666;fontColor=#333333;" vertex="1" parent="EeFjgTn4-AB8cj1WIgyt-1">
          <mxGeometry x="670" y="290" width="450" height="90" as="geometry" />
        </mxCell>
        <mxCell id="EeFjgTn4-AB8cj1WIgyt-4" value="TicketId" style="rounded=0;whiteSpace=wrap;html=1;fontSize=10;align=center;fillColor=#dae8fc;strokeColor=#6c8ebf;" vertex="1" parent="EeFjgTn4-AB8cj1WIgyt-1">
          <mxGeometry x="685" y="300" width="60" height="20" as="geometry" />
        </mxCell>
        <mxCell id="EeFjgTn4-AB8cj1WIgyt-5" value="&#39;CZQ&#39;" style="rounded=0;whiteSpace=wrap;html=1;fontSize=15;align=center;" vertex="1" parent="EeFjgTn4-AB8cj1WIgyt-1">
          <mxGeometry x="685" y="320" width="60" height="45" as="geometry" />
        </mxCell>
        <mxCell id="EeFjgTn4-AB8cj1WIgyt-6" value="version" style="rounded=0;whiteSpace=wrap;html=1;fontSize=13;align=center;fillColor=#dae8fc;strokeColor=#6c8ebf;fontStyle=0" vertex="1" parent="EeFjgTn4-AB8cj1WIgyt-1">
          <mxGeometry x="925" y="300" width="90" height="20" as="geometry" />
        </mxCell>
        <mxCell id="EeFjgTn4-AB8cj1WIgyt-7" value="2" style="rounded=0;whiteSpace=wrap;html=1;fontSize=15;align=center;" vertex="1" parent="EeFjgTn4-AB8cj1WIgyt-1">
          <mxGeometry x="925" y="320" width="90" height="45" as="geometry" />
        </mxCell>
        <mxCell id="EeFjgTn4-AB8cj1WIgyt-8" value="title" style="rounded=0;whiteSpace=wrap;html=1;fontSize=13;align=center;fillColor=#dae8fc;strokeColor=#6c8ebf;fontStyle=0" vertex="1" parent="EeFjgTn4-AB8cj1WIgyt-1">
          <mxGeometry x="745" y="300" width="90" height="20" as="geometry" />
        </mxCell>
        <mxCell id="EeFjgTn4-AB8cj1WIgyt-9" value="concert" style="rounded=0;whiteSpace=wrap;html=1;fontSize=15;align=center;" vertex="1" parent="EeFjgTn4-AB8cj1WIgyt-1">
          <mxGeometry x="745" y="320" width="90" height="45" as="geometry" />
        </mxCell>
        <mxCell id="EeFjgTn4-AB8cj1WIgyt-10" value="price" style="rounded=0;whiteSpace=wrap;html=1;fontSize=13;align=center;fillColor=#dae8fc;strokeColor=#6c8ebf;fontStyle=0" vertex="1" parent="EeFjgTn4-AB8cj1WIgyt-1">
          <mxGeometry x="835" y="300" width="90" height="20" as="geometry" />
        </mxCell>
        <mxCell id="EeFjgTn4-AB8cj1WIgyt-11" value="20" style="rounded=0;whiteSpace=wrap;html=1;fontSize=15;align=center;" vertex="1" parent="EeFjgTn4-AB8cj1WIgyt-1">
          <mxGeometry x="835" y="320" width="90" height="45" as="geometry" />
        </mxCell>
        <mxCell id="EeFjgTn4-AB8cj1WIgyt-12" value="orderId" style="rounded=0;whiteSpace=wrap;html=1;fontSize=13;align=center;fillColor=#dae8fc;strokeColor=#6c8ebf;fontStyle=0" vertex="1" parent="EeFjgTn4-AB8cj1WIgyt-1">
          <mxGeometry x="1015" y="300" width="90" height="20" as="geometry" />
        </mxCell>
        <mxCell id="EeFjgTn4-AB8cj1WIgyt-13" value="-" style="rounded=0;whiteSpace=wrap;html=1;fontSize=15;align=center;" vertex="1" parent="EeFjgTn4-AB8cj1WIgyt-1">
          <mxGeometry x="1015" y="320" width="90" height="45" as="geometry" />
        </mxCell>
        <mxCell id="EeFjgTn4-AB8cj1WIgyt-14" style="edgeStyle=orthogonalEdgeStyle;rounded=0;orthogonalLoop=1;jettySize=auto;html=1;exitX=0.5;exitY=1;exitDx=0;exitDy=0;entryX=0.5;entryY=0;entryDx=0;entryDy=0;strokeWidth=1;fontSize=13;" edge="1" parent="EeFjgTn4-AB8cj1WIgyt-1" source="EeFjgTn4-AB8cj1WIgyt-15" target="EeFjgTn4-AB8cj1WIgyt-2">
          <mxGeometry relative="1" as="geometry" />
        </mxCell>
        <mxCell id="EeFjgTn4-AB8cj1WIgyt-15" value="&lt;b&gt;order:cancelled&lt;/b&gt;&lt;br&gt;id: &#39;ADS&#39;, ticketId: &#39;CZQ&#39;&lt;b&gt;&lt;br&gt;&lt;/b&gt;" style="rounded=0;whiteSpace=wrap;html=1;fontSize=13;align=center;fillColor=#f8cecc;strokeColor=#b85450;" vertex="1" parent="EeFjgTn4-AB8cj1WIgyt-1">
          <mxGeometry x="810" y="160" width="170" height="50" as="geometry" />
        </mxCell>
      </root>
    </mxGraphModel>
  </diagram>
  <diagram name="10 - update" id="r6CtW5BPeop_I4RloS4P">
    <mxGraphModel dx="770" dy="379" grid="1" gridSize="10" guides="1" tooltips="1" connect="1" arrows="1" fold="1" page="1" pageScale="1" pageWidth="1920" pageHeight="1200" math="0" shadow="0">
      <root>
        <mxCell id="rV00rYsbxei2wW3qqV1i-0" />
        <mxCell id="rV00rYsbxei2wW3qqV1i-1" parent="rV00rYsbxei2wW3qqV1i-0" />
        <mxCell id="rV00rYsbxei2wW3qqV1i-2" value="Tickets" style="rounded=0;whiteSpace=wrap;html=1;fillColor=#f5f5f5;strokeColor=#666666;fontColor=#333333;fontStyle=1;fontSize=16;" vertex="1" parent="rV00rYsbxei2wW3qqV1i-1">
          <mxGeometry x="670" y="260" width="450" height="30" as="geometry" />
        </mxCell>
        <mxCell id="rV00rYsbxei2wW3qqV1i-3" value="" style="rounded=0;whiteSpace=wrap;html=1;fillColor=#f5f5f5;strokeColor=#666666;fontColor=#333333;" vertex="1" parent="rV00rYsbxei2wW3qqV1i-1">
          <mxGeometry x="670" y="290" width="450" height="90" as="geometry" />
        </mxCell>
        <mxCell id="rV00rYsbxei2wW3qqV1i-4" value="TicketId" style="rounded=0;whiteSpace=wrap;html=1;fontSize=10;align=center;fillColor=#dae8fc;strokeColor=#6c8ebf;" vertex="1" parent="rV00rYsbxei2wW3qqV1i-1">
          <mxGeometry x="685" y="300" width="60" height="20" as="geometry" />
        </mxCell>
        <mxCell id="rV00rYsbxei2wW3qqV1i-5" value="&#39;CZQ&#39;" style="rounded=0;whiteSpace=wrap;html=1;fontSize=15;align=center;" vertex="1" parent="rV00rYsbxei2wW3qqV1i-1">
          <mxGeometry x="685" y="320" width="60" height="45" as="geometry" />
        </mxCell>
        <mxCell id="rV00rYsbxei2wW3qqV1i-6" value="version" style="rounded=0;whiteSpace=wrap;html=1;fontSize=13;align=center;fillColor=#dae8fc;strokeColor=#6c8ebf;fontStyle=0" vertex="1" parent="rV00rYsbxei2wW3qqV1i-1">
          <mxGeometry x="925" y="300" width="90" height="20" as="geometry" />
        </mxCell>
        <mxCell id="rV00rYsbxei2wW3qqV1i-7" value="3" style="rounded=0;whiteSpace=wrap;html=1;fontSize=15;align=center;" vertex="1" parent="rV00rYsbxei2wW3qqV1i-1">
          <mxGeometry x="925" y="320" width="90" height="45" as="geometry" />
        </mxCell>
        <mxCell id="rV00rYsbxei2wW3qqV1i-8" value="title" style="rounded=0;whiteSpace=wrap;html=1;fontSize=13;align=center;fillColor=#dae8fc;strokeColor=#6c8ebf;fontStyle=0" vertex="1" parent="rV00rYsbxei2wW3qqV1i-1">
          <mxGeometry x="745" y="300" width="90" height="20" as="geometry" />
        </mxCell>
        <mxCell id="rV00rYsbxei2wW3qqV1i-9" value="concert" style="rounded=0;whiteSpace=wrap;html=1;fontSize=15;align=center;" vertex="1" parent="rV00rYsbxei2wW3qqV1i-1">
          <mxGeometry x="745" y="320" width="90" height="45" as="geometry" />
        </mxCell>
        <mxCell id="rV00rYsbxei2wW3qqV1i-10" value="price" style="rounded=0;whiteSpace=wrap;html=1;fontSize=13;align=center;fillColor=#dae8fc;strokeColor=#6c8ebf;fontStyle=0" vertex="1" parent="rV00rYsbxei2wW3qqV1i-1">
          <mxGeometry x="835" y="300" width="90" height="20" as="geometry" />
        </mxCell>
        <mxCell id="rV00rYsbxei2wW3qqV1i-11" value="30" style="rounded=0;whiteSpace=wrap;html=1;fontSize=15;align=center;" vertex="1" parent="rV00rYsbxei2wW3qqV1i-1">
          <mxGeometry x="835" y="320" width="90" height="45" as="geometry" />
        </mxCell>
        <mxCell id="rV00rYsbxei2wW3qqV1i-12" value="orderId" style="rounded=0;whiteSpace=wrap;html=1;fontSize=13;align=center;fillColor=#dae8fc;strokeColor=#6c8ebf;fontStyle=0" vertex="1" parent="rV00rYsbxei2wW3qqV1i-1">
          <mxGeometry x="1015" y="300" width="90" height="20" as="geometry" />
        </mxCell>
        <mxCell id="rV00rYsbxei2wW3qqV1i-13" value="-" style="rounded=0;whiteSpace=wrap;html=1;fontSize=15;align=center;" vertex="1" parent="rV00rYsbxei2wW3qqV1i-1">
          <mxGeometry x="1015" y="320" width="90" height="45" as="geometry" />
        </mxCell>
        <mxCell id="rV00rYsbxei2wW3qqV1i-14" style="edgeStyle=orthogonalEdgeStyle;rounded=0;orthogonalLoop=1;jettySize=auto;html=1;exitX=0.5;exitY=1;exitDx=0;exitDy=0;entryX=0.5;entryY=0;entryDx=0;entryDy=0;strokeWidth=1;fontSize=13;" edge="1" parent="rV00rYsbxei2wW3qqV1i-1" source="rV00rYsbxei2wW3qqV1i-15" target="rV00rYsbxei2wW3qqV1i-2">
          <mxGeometry relative="1" as="geometry" />
        </mxCell>
        <mxCell id="rV00rYsbxei2wW3qqV1i-15" value="&lt;b&gt;Request to Edit Ticket&lt;/b&gt;&lt;br&gt;id: &#39;CZQ&#39;, price: 30" style="rounded=0;whiteSpace=wrap;html=1;fontSize=13;align=center;fillColor=#dae8fc;strokeColor=#6c8ebf;" vertex="1" parent="rV00rYsbxei2wW3qqV1i-1">
          <mxGeometry x="810" y="160" width="170" height="50" as="geometry" />
        </mxCell>
      </root>
    </mxGraphModel>
  </diagram>
  <diagram name="11 - event" id="FkS6J3bpoQp83vf2XV7Y">
    <mxGraphModel dx="699" dy="344" grid="1" gridSize="10" guides="1" tooltips="1" connect="1" arrows="1" fold="1" page="1" pageScale="1" pageWidth="1920" pageHeight="1200" math="0" shadow="0">
      <root>
        <mxCell id="GxOkZvruypXEcrvuovs_-0" />
        <mxCell id="GxOkZvruypXEcrvuovs_-1" parent="GxOkZvruypXEcrvuovs_-0" />
        <mxCell id="GxOkZvruypXEcrvuovs_-2" value="Tickets" style="rounded=0;whiteSpace=wrap;html=1;fillColor=#f5f5f5;strokeColor=#666666;fontColor=#333333;fontStyle=1;fontSize=16;" vertex="1" parent="GxOkZvruypXEcrvuovs_-1">
          <mxGeometry x="670" y="260" width="450" height="30" as="geometry" />
        </mxCell>
        <mxCell id="GxOkZvruypXEcrvuovs_-17" style="edgeStyle=orthogonalEdgeStyle;rounded=0;orthogonalLoop=1;jettySize=auto;html=1;exitX=0.5;exitY=1;exitDx=0;exitDy=0;strokeWidth=1;fontSize=13;" edge="1" parent="GxOkZvruypXEcrvuovs_-1" source="GxOkZvruypXEcrvuovs_-3" target="GxOkZvruypXEcrvuovs_-16">
          <mxGeometry relative="1" as="geometry" />
        </mxCell>
        <mxCell id="GxOkZvruypXEcrvuovs_-3" value="" style="rounded=0;whiteSpace=wrap;html=1;fillColor=#f5f5f5;strokeColor=#666666;fontColor=#333333;" vertex="1" parent="GxOkZvruypXEcrvuovs_-1">
          <mxGeometry x="670" y="290" width="450" height="90" as="geometry" />
        </mxCell>
        <mxCell id="GxOkZvruypXEcrvuovs_-4" value="TicketId" style="rounded=0;whiteSpace=wrap;html=1;fontSize=10;align=center;fillColor=#dae8fc;strokeColor=#6c8ebf;" vertex="1" parent="GxOkZvruypXEcrvuovs_-1">
          <mxGeometry x="685" y="300" width="60" height="20" as="geometry" />
        </mxCell>
        <mxCell id="GxOkZvruypXEcrvuovs_-5" value="&#39;CZQ&#39;" style="rounded=0;whiteSpace=wrap;html=1;fontSize=15;align=center;" vertex="1" parent="GxOkZvruypXEcrvuovs_-1">
          <mxGeometry x="685" y="320" width="60" height="45" as="geometry" />
        </mxCell>
        <mxCell id="GxOkZvruypXEcrvuovs_-6" value="version" style="rounded=0;whiteSpace=wrap;html=1;fontSize=13;align=center;fillColor=#dae8fc;strokeColor=#6c8ebf;fontStyle=0" vertex="1" parent="GxOkZvruypXEcrvuovs_-1">
          <mxGeometry x="925" y="300" width="90" height="20" as="geometry" />
        </mxCell>
        <mxCell id="GxOkZvruypXEcrvuovs_-7" value="3" style="rounded=0;whiteSpace=wrap;html=1;fontSize=15;align=center;" vertex="1" parent="GxOkZvruypXEcrvuovs_-1">
          <mxGeometry x="925" y="320" width="90" height="45" as="geometry" />
        </mxCell>
        <mxCell id="GxOkZvruypXEcrvuovs_-8" value="title" style="rounded=0;whiteSpace=wrap;html=1;fontSize=13;align=center;fillColor=#dae8fc;strokeColor=#6c8ebf;fontStyle=0" vertex="1" parent="GxOkZvruypXEcrvuovs_-1">
          <mxGeometry x="745" y="300" width="90" height="20" as="geometry" />
        </mxCell>
        <mxCell id="GxOkZvruypXEcrvuovs_-9" value="concert" style="rounded=0;whiteSpace=wrap;html=1;fontSize=15;align=center;" vertex="1" parent="GxOkZvruypXEcrvuovs_-1">
          <mxGeometry x="745" y="320" width="90" height="45" as="geometry" />
        </mxCell>
        <mxCell id="GxOkZvruypXEcrvuovs_-10" value="price" style="rounded=0;whiteSpace=wrap;html=1;fontSize=13;align=center;fillColor=#dae8fc;strokeColor=#6c8ebf;fontStyle=0" vertex="1" parent="GxOkZvruypXEcrvuovs_-1">
          <mxGeometry x="835" y="300" width="90" height="20" as="geometry" />
        </mxCell>
        <mxCell id="GxOkZvruypXEcrvuovs_-11" value="30" style="rounded=0;whiteSpace=wrap;html=1;fontSize=15;align=center;" vertex="1" parent="GxOkZvruypXEcrvuovs_-1">
          <mxGeometry x="835" y="320" width="90" height="45" as="geometry" />
        </mxCell>
        <mxCell id="GxOkZvruypXEcrvuovs_-12" value="orderId" style="rounded=0;whiteSpace=wrap;html=1;fontSize=13;align=center;fillColor=#dae8fc;strokeColor=#6c8ebf;fontStyle=0" vertex="1" parent="GxOkZvruypXEcrvuovs_-1">
          <mxGeometry x="1015" y="300" width="90" height="20" as="geometry" />
        </mxCell>
        <mxCell id="GxOkZvruypXEcrvuovs_-13" value="-" style="rounded=0;whiteSpace=wrap;html=1;fontSize=15;align=center;" vertex="1" parent="GxOkZvruypXEcrvuovs_-1">
          <mxGeometry x="1015" y="320" width="90" height="45" as="geometry" />
        </mxCell>
        <mxCell id="GxOkZvruypXEcrvuovs_-14" style="edgeStyle=orthogonalEdgeStyle;rounded=0;orthogonalLoop=1;jettySize=auto;html=1;exitX=0.5;exitY=1;exitDx=0;exitDy=0;entryX=0.5;entryY=0;entryDx=0;entryDy=0;strokeWidth=1;fontSize=13;" edge="1" parent="GxOkZvruypXEcrvuovs_-1" source="GxOkZvruypXEcrvuovs_-15" target="GxOkZvruypXEcrvuovs_-2">
          <mxGeometry relative="1" as="geometry" />
        </mxCell>
        <mxCell id="GxOkZvruypXEcrvuovs_-15" value="&lt;b&gt;Request to Edit Ticket&lt;/b&gt;&lt;br&gt;id: &#39;CZQ&#39;, price: 30" style="rounded=0;whiteSpace=wrap;html=1;fontSize=13;align=center;fillColor=#dae8fc;strokeColor=#6c8ebf;" vertex="1" parent="GxOkZvruypXEcrvuovs_-1">
          <mxGeometry x="810" y="180" width="170" height="50" as="geometry" />
        </mxCell>
        <mxCell id="GxOkZvruypXEcrvuovs_-16" value="&lt;b&gt;ticket:updated&lt;/b&gt;&lt;br&gt;id: CZQ, price: 30, version 3" style="rounded=0;whiteSpace=wrap;html=1;fontSize=13;align=center;fillColor=#f8cecc;strokeColor=#b85450;" vertex="1" parent="GxOkZvruypXEcrvuovs_-1">
          <mxGeometry x="805" y="420" width="180" height="50" as="geometry" />
        </mxCell>
      </root>
    </mxGraphModel>
  </diagram>
  <diagram name="12 - event" id="D_bBmXoLboP8rqQQfO_V">
    <mxGraphModel dx="834" dy="411" grid="1" gridSize="10" guides="1" tooltips="1" connect="1" arrows="1" fold="1" page="1" pageScale="1" pageWidth="1920" pageHeight="1200" math="0" shadow="0">
      <root>
        <mxCell id="8-pvnjM0h-H1MBm3yH1D-0" />
        <mxCell id="8-pvnjM0h-H1MBm3yH1D-1" parent="8-pvnjM0h-H1MBm3yH1D-0" />
        <mxCell id="KDR-66-sJIRdfZSg6cM--0" value="Tickets" style="rounded=0;whiteSpace=wrap;html=1;fillColor=#f5f5f5;strokeColor=#666666;fontColor=#333333;fontStyle=1;fontSize=16;" vertex="1" parent="8-pvnjM0h-H1MBm3yH1D-1">
          <mxGeometry x="670" y="260" width="450" height="30" as="geometry" />
        </mxCell>
        <mxCell id="KDR-66-sJIRdfZSg6cM--1" style="edgeStyle=orthogonalEdgeStyle;rounded=0;orthogonalLoop=1;jettySize=auto;html=1;exitX=0.5;exitY=1;exitDx=0;exitDy=0;strokeWidth=1;fontSize=13;" edge="1" parent="8-pvnjM0h-H1MBm3yH1D-1" source="KDR-66-sJIRdfZSg6cM--2" target="KDR-66-sJIRdfZSg6cM--15">
          <mxGeometry relative="1" as="geometry" />
        </mxCell>
        <mxCell id="KDR-66-sJIRdfZSg6cM--2" value="" style="rounded=0;whiteSpace=wrap;html=1;fillColor=#f5f5f5;strokeColor=#666666;fontColor=#333333;" vertex="1" parent="8-pvnjM0h-H1MBm3yH1D-1">
          <mxGeometry x="670" y="290" width="450" height="90" as="geometry" />
        </mxCell>
        <mxCell id="KDR-66-sJIRdfZSg6cM--3" value="TicketId" style="rounded=0;whiteSpace=wrap;html=1;fontSize=10;align=center;fillColor=#dae8fc;strokeColor=#6c8ebf;" vertex="1" parent="8-pvnjM0h-H1MBm3yH1D-1">
          <mxGeometry x="685" y="300" width="60" height="20" as="geometry" />
        </mxCell>
        <mxCell id="KDR-66-sJIRdfZSg6cM--4" value="&#39;CZQ&#39;" style="rounded=0;whiteSpace=wrap;html=1;fontSize=15;align=center;" vertex="1" parent="8-pvnjM0h-H1MBm3yH1D-1">
          <mxGeometry x="685" y="320" width="60" height="45" as="geometry" />
        </mxCell>
        <mxCell id="KDR-66-sJIRdfZSg6cM--5" value="version" style="rounded=0;whiteSpace=wrap;html=1;fontSize=13;align=center;fillColor=#dae8fc;strokeColor=#6c8ebf;fontStyle=0" vertex="1" parent="8-pvnjM0h-H1MBm3yH1D-1">
          <mxGeometry x="925" y="300" width="90" height="20" as="geometry" />
        </mxCell>
        <mxCell id="KDR-66-sJIRdfZSg6cM--6" value="3" style="rounded=0;whiteSpace=wrap;html=1;fontSize=15;align=center;" vertex="1" parent="8-pvnjM0h-H1MBm3yH1D-1">
          <mxGeometry x="925" y="320" width="90" height="45" as="geometry" />
        </mxCell>
        <mxCell id="KDR-66-sJIRdfZSg6cM--7" value="title" style="rounded=0;whiteSpace=wrap;html=1;fontSize=13;align=center;fillColor=#dae8fc;strokeColor=#6c8ebf;fontStyle=0" vertex="1" parent="8-pvnjM0h-H1MBm3yH1D-1">
          <mxGeometry x="745" y="300" width="90" height="20" as="geometry" />
        </mxCell>
        <mxCell id="KDR-66-sJIRdfZSg6cM--8" value="concert" style="rounded=0;whiteSpace=wrap;html=1;fontSize=15;align=center;" vertex="1" parent="8-pvnjM0h-H1MBm3yH1D-1">
          <mxGeometry x="745" y="320" width="90" height="45" as="geometry" />
        </mxCell>
        <mxCell id="KDR-66-sJIRdfZSg6cM--9" value="price" style="rounded=0;whiteSpace=wrap;html=1;fontSize=13;align=center;fillColor=#dae8fc;strokeColor=#6c8ebf;fontStyle=0" vertex="1" parent="8-pvnjM0h-H1MBm3yH1D-1">
          <mxGeometry x="835" y="300" width="90" height="20" as="geometry" />
        </mxCell>
        <mxCell id="KDR-66-sJIRdfZSg6cM--10" value="30" style="rounded=0;whiteSpace=wrap;html=1;fontSize=15;align=center;" vertex="1" parent="8-pvnjM0h-H1MBm3yH1D-1">
          <mxGeometry x="835" y="320" width="90" height="45" as="geometry" />
        </mxCell>
        <mxCell id="KDR-66-sJIRdfZSg6cM--11" value="orderId" style="rounded=0;whiteSpace=wrap;html=1;fontSize=13;align=center;fillColor=#dae8fc;strokeColor=#6c8ebf;fontStyle=0" vertex="1" parent="8-pvnjM0h-H1MBm3yH1D-1">
          <mxGeometry x="1015" y="300" width="90" height="20" as="geometry" />
        </mxCell>
        <mxCell id="KDR-66-sJIRdfZSg6cM--12" value="-" style="rounded=0;whiteSpace=wrap;html=1;fontSize=15;align=center;" vertex="1" parent="8-pvnjM0h-H1MBm3yH1D-1">
          <mxGeometry x="1015" y="320" width="90" height="45" as="geometry" />
        </mxCell>
        <mxCell id="KDR-66-sJIRdfZSg6cM--13" style="edgeStyle=orthogonalEdgeStyle;rounded=0;orthogonalLoop=1;jettySize=auto;html=1;exitX=0.5;exitY=1;exitDx=0;exitDy=0;entryX=0.5;entryY=0;entryDx=0;entryDy=0;strokeWidth=1;fontSize=13;" edge="1" parent="8-pvnjM0h-H1MBm3yH1D-1" source="KDR-66-sJIRdfZSg6cM--14" target="KDR-66-sJIRdfZSg6cM--0">
          <mxGeometry relative="1" as="geometry" />
        </mxCell>
        <mxCell id="KDR-66-sJIRdfZSg6cM--14" value="&lt;b&gt;Request to Edit Ticket&lt;/b&gt;&lt;br&gt;id: &#39;CZQ&#39;, price: 30" style="rounded=0;whiteSpace=wrap;html=1;fontSize=13;align=center;fillColor=#dae8fc;strokeColor=#6c8ebf;" vertex="1" parent="8-pvnjM0h-H1MBm3yH1D-1">
          <mxGeometry x="810" y="180" width="170" height="50" as="geometry" />
        </mxCell>
        <mxCell id="KDR-66-sJIRdfZSg6cM--28" style="edgeStyle=orthogonalEdgeStyle;rounded=0;orthogonalLoop=1;jettySize=auto;html=1;exitX=0.5;exitY=1;exitDx=0;exitDy=0;strokeWidth=1;fontSize=13;" edge="1" parent="8-pvnjM0h-H1MBm3yH1D-1" source="KDR-66-sJIRdfZSg6cM--15" target="KDR-66-sJIRdfZSg6cM--16">
          <mxGeometry relative="1" as="geometry" />
        </mxCell>
        <mxCell id="KDR-66-sJIRdfZSg6cM--15" value="&lt;b&gt;ticket:updated&lt;/b&gt;&lt;br&gt;id: CZQ, price: 30, version 3" style="rounded=0;whiteSpace=wrap;html=1;fontSize=13;align=center;fillColor=#f8cecc;strokeColor=#b85450;" vertex="1" parent="8-pvnjM0h-H1MBm3yH1D-1">
          <mxGeometry x="805" y="420" width="180" height="50" as="geometry" />
        </mxCell>
        <mxCell id="KDR-66-sJIRdfZSg6cM--16" value="&lt;font style=&quot;font-size: 24px&quot;&gt;Orders&lt;/font&gt; Service" style="rounded=0;whiteSpace=wrap;html=1;fillColor=#f5f5f5;strokeColor=#666666;fontColor=#333333;fontStyle=1;fontSize=16;" vertex="1" parent="8-pvnjM0h-H1MBm3yH1D-1">
          <mxGeometry x="715" y="510" width="360" height="30" as="geometry" />
        </mxCell>
        <mxCell id="KDR-66-sJIRdfZSg6cM--17" value="" style="rounded=0;whiteSpace=wrap;html=1;fillColor=#f5f5f5;strokeColor=#666666;fontColor=#333333;" vertex="1" parent="8-pvnjM0h-H1MBm3yH1D-1">
          <mxGeometry x="715" y="540" width="360" height="90" as="geometry" />
        </mxCell>
        <mxCell id="KDR-66-sJIRdfZSg6cM--18" value="TicketId" style="rounded=0;whiteSpace=wrap;html=1;fontSize=10;align=center;fillColor=#dae8fc;strokeColor=#6c8ebf;" vertex="1" parent="8-pvnjM0h-H1MBm3yH1D-1">
          <mxGeometry x="730" y="550" width="60" height="20" as="geometry" />
        </mxCell>
        <mxCell id="KDR-66-sJIRdfZSg6cM--19" value="&#39;CZQ&#39;" style="rounded=0;whiteSpace=wrap;html=1;fontSize=15;align=center;" vertex="1" parent="8-pvnjM0h-H1MBm3yH1D-1">
          <mxGeometry x="730" y="570" width="60" height="45" as="geometry" />
        </mxCell>
        <mxCell id="KDR-66-sJIRdfZSg6cM--20" value="version" style="rounded=0;whiteSpace=wrap;html=1;fontSize=13;align=center;fillColor=#dae8fc;strokeColor=#6c8ebf;fontStyle=0" vertex="1" parent="8-pvnjM0h-H1MBm3yH1D-1">
          <mxGeometry x="970" y="550" width="90" height="20" as="geometry" />
        </mxCell>
        <mxCell id="KDR-66-sJIRdfZSg6cM--21" value="0" style="rounded=0;whiteSpace=wrap;html=1;fontSize=15;align=center;" vertex="1" parent="8-pvnjM0h-H1MBm3yH1D-1">
          <mxGeometry x="970" y="570" width="90" height="45" as="geometry" />
        </mxCell>
        <mxCell id="KDR-66-sJIRdfZSg6cM--22" value="title" style="rounded=0;whiteSpace=wrap;html=1;fontSize=13;align=center;fillColor=#dae8fc;strokeColor=#6c8ebf;fontStyle=0" vertex="1" parent="8-pvnjM0h-H1MBm3yH1D-1">
          <mxGeometry x="790" y="550" width="90" height="20" as="geometry" />
        </mxCell>
        <mxCell id="KDR-66-sJIRdfZSg6cM--23" value="concert" style="rounded=0;whiteSpace=wrap;html=1;fontSize=15;align=center;" vertex="1" parent="8-pvnjM0h-H1MBm3yH1D-1">
          <mxGeometry x="790" y="570" width="90" height="45" as="geometry" />
        </mxCell>
        <mxCell id="KDR-66-sJIRdfZSg6cM--24" value="price" style="rounded=0;whiteSpace=wrap;html=1;fontSize=13;align=center;fillColor=#dae8fc;strokeColor=#6c8ebf;fontStyle=0" vertex="1" parent="8-pvnjM0h-H1MBm3yH1D-1">
          <mxGeometry x="880" y="550" width="90" height="20" as="geometry" />
        </mxCell>
        <mxCell id="KDR-66-sJIRdfZSg6cM--25" value="20" style="rounded=0;whiteSpace=wrap;html=1;fontSize=15;align=center;" vertex="1" parent="8-pvnjM0h-H1MBm3yH1D-1">
          <mxGeometry x="880" y="570" width="90" height="45" as="geometry" />
        </mxCell>
      </root>
    </mxGraphModel>
  </diagram>
  <diagram id="cdtP1xaDiHAs5vscZuDc" name="13 - updated">
    <mxGraphModel dx="715" dy="352" grid="1" gridSize="10" guides="1" tooltips="1" connect="1" arrows="1" fold="1" page="1" pageScale="1" pageWidth="1920" pageHeight="1200" math="0" shadow="0">
      <root>
        <mxCell id="GyAXRCKoiebveEDAg_jT-0" />
        <mxCell id="GyAXRCKoiebveEDAg_jT-1" parent="GyAXRCKoiebveEDAg_jT-0" />
        <mxCell id="PIBiMZ4NOf7mdThy6sPr-0" value="" style="rounded=0;whiteSpace=wrap;html=1;fontSize=15;align=center;fillColor=#f5f5f5;strokeColor=#666666;fontColor=#333333;" vertex="1" parent="GyAXRCKoiebveEDAg_jT-1">
          <mxGeometry x="640" y="290" width="680" height="60" as="geometry" />
        </mxCell>
        <mxCell id="GyAXRCKoiebveEDAg_jT-7" style="edgeStyle=orthogonalEdgeStyle;rounded=0;orthogonalLoop=1;jettySize=auto;html=1;exitX=0.25;exitY=1;exitDx=0;exitDy=0;entryX=0.25;entryY=0;entryDx=0;entryDy=0;strokeWidth=1;fontSize=15;" edge="1" parent="GyAXRCKoiebveEDAg_jT-1" source="GyAXRCKoiebveEDAg_jT-2" target="GyAXRCKoiebveEDAg_jT-5">
          <mxGeometry relative="1" as="geometry" />
        </mxCell>
        <mxCell id="GyAXRCKoiebveEDAg_jT-2" value="Listener Base Class" style="rounded=0;whiteSpace=wrap;html=1;fontSize=15;align=center;fontStyle=1;fillColor=#dae8fc;strokeColor=#6c8ebf;" vertex="1" parent="GyAXRCKoiebveEDAg_jT-1">
          <mxGeometry x="650" y="170" width="330" height="40" as="geometry" />
        </mxCell>
        <mxCell id="GyAXRCKoiebveEDAg_jT-9" style="edgeStyle=orthogonalEdgeStyle;rounded=0;orthogonalLoop=1;jettySize=auto;html=1;exitX=1;exitY=0.5;exitDx=0;exitDy=0;strokeWidth=1;fontSize=15;" edge="1" parent="GyAXRCKoiebveEDAg_jT-1" source="GyAXRCKoiebveEDAg_jT-5" target="GyAXRCKoiebveEDAg_jT-8">
          <mxGeometry relative="1" as="geometry" />
        </mxCell>
        <mxCell id="GyAXRCKoiebveEDAg_jT-5" value="OrderCreatedListener" style="rounded=0;whiteSpace=wrap;html=1;fontSize=15;align=center;fontStyle=1;fillColor=#dae8fc;strokeColor=#6c8ebf;" vertex="1" parent="GyAXRCKoiebveEDAg_jT-1">
          <mxGeometry x="650" y="300" width="330" height="40" as="geometry" />
        </mxCell>
        <mxCell id="GyAXRCKoiebveEDAg_jT-8" value="TicketUpdatedPublisher" style="rounded=0;whiteSpace=wrap;html=1;fontSize=15;align=center;fontStyle=1;fillColor=#d5e8d4;strokeColor=#82b366;" vertex="1" parent="GyAXRCKoiebveEDAg_jT-1">
          <mxGeometry x="1060" y="300" width="240" height="40" as="geometry" />
        </mxCell>
        <mxCell id="PIBiMZ4NOf7mdThy6sPr-2" style="edgeStyle=orthogonalEdgeStyle;rounded=0;orthogonalLoop=1;jettySize=auto;html=1;exitX=0.5;exitY=0;exitDx=0;exitDy=0;entryX=0.5;entryY=1;entryDx=0;entryDy=0;strokeWidth=1;fontSize=15;" edge="1" parent="GyAXRCKoiebveEDAg_jT-1" source="PIBiMZ4NOf7mdThy6sPr-1" target="GyAXRCKoiebveEDAg_jT-5">
          <mxGeometry relative="1" as="geometry" />
        </mxCell>
        <mxCell id="PIBiMZ4NOf7mdThy6sPr-1" value="NatsWrapper" style="rounded=0;whiteSpace=wrap;html=1;fontSize=15;align=center;fontStyle=1;fillColor=#ffe6cc;strokeColor=#d79b00;" vertex="1" parent="GyAXRCKoiebveEDAg_jT-1">
          <mxGeometry x="650" y="410" width="330" height="40" as="geometry" />
        </mxCell>
        <mxCell id="PIBiMZ4NOf7mdThy6sPr-3" value="client" style="rounded=0;whiteSpace=wrap;html=1;fontSize=15;align=center;fontStyle=1;fillColor=#ffe6cc;strokeColor=#d79b00;" vertex="1" parent="GyAXRCKoiebveEDAg_jT-1">
          <mxGeometry x="860" y="450" width="120" height="40" as="geometry" />
        </mxCell>
      </root>
    </mxGraphModel>
  </diagram>
  <diagram name="14 - updated" id="DbfxpzsnWT2zU3FXkhzX">
    <mxGraphModel dx="791" dy="389" grid="1" gridSize="10" guides="1" tooltips="1" connect="1" arrows="1" fold="1" page="1" pageScale="1" pageWidth="1920" pageHeight="1200" math="0" shadow="0">
      <root>
        <mxCell id="FTI0y0ViG_vtDv3XeKZP-0" />
        <mxCell id="FTI0y0ViG_vtDv3XeKZP-1" parent="FTI0y0ViG_vtDv3XeKZP-0" />
        <mxCell id="FTI0y0ViG_vtDv3XeKZP-2" style="edgeStyle=orthogonalEdgeStyle;rounded=0;orthogonalLoop=1;jettySize=auto;html=1;exitX=0.25;exitY=1;exitDx=0;exitDy=0;entryX=0.25;entryY=0;entryDx=0;entryDy=0;strokeWidth=1;fontSize=15;" edge="1" parent="FTI0y0ViG_vtDv3XeKZP-1" source="FTI0y0ViG_vtDv3XeKZP-3" target="FTI0y0ViG_vtDv3XeKZP-6">
          <mxGeometry relative="1" as="geometry" />
        </mxCell>
        <mxCell id="FTI0y0ViG_vtDv3XeKZP-3" value="Listener Base Class" style="rounded=0;whiteSpace=wrap;html=1;fontSize=15;align=center;fontStyle=1;fillColor=#dae8fc;strokeColor=#6c8ebf;" vertex="1" parent="FTI0y0ViG_vtDv3XeKZP-1">
          <mxGeometry x="650" y="170" width="330" height="40" as="geometry" />
        </mxCell>
        <mxCell id="FTI0y0ViG_vtDv3XeKZP-4" value="protected client: NatsClient" style="rounded=0;whiteSpace=wrap;html=1;fontSize=15;align=center;fontStyle=0;fillColor=#ffe6cc;strokeColor=#d79b00;" vertex="1" parent="FTI0y0ViG_vtDv3XeKZP-1">
          <mxGeometry x="770" y="210" width="210" height="40" as="geometry" />
        </mxCell>
        <mxCell id="FTI0y0ViG_vtDv3XeKZP-5" style="edgeStyle=orthogonalEdgeStyle;rounded=0;orthogonalLoop=1;jettySize=auto;html=1;exitX=1;exitY=0.5;exitDx=0;exitDy=0;strokeWidth=1;fontSize=15;" edge="1" parent="FTI0y0ViG_vtDv3XeKZP-1" source="FTI0y0ViG_vtDv3XeKZP-6" target="FTI0y0ViG_vtDv3XeKZP-7">
          <mxGeometry relative="1" as="geometry" />
        </mxCell>
        <mxCell id="FTI0y0ViG_vtDv3XeKZP-6" value="OrderCreatedListener" style="rounded=0;whiteSpace=wrap;html=1;fontSize=15;align=center;fontStyle=1;fillColor=#dae8fc;strokeColor=#6c8ebf;" vertex="1" parent="FTI0y0ViG_vtDv3XeKZP-1">
          <mxGeometry x="650" y="300" width="330" height="40" as="geometry" />
        </mxCell>
        <mxCell id="FTI0y0ViG_vtDv3XeKZP-7" value="TicketUpdatedPublisher" style="rounded=0;whiteSpace=wrap;html=1;fontSize=15;align=center;fontStyle=1;fillColor=#d5e8d4;strokeColor=#82b366;" vertex="1" parent="FTI0y0ViG_vtDv3XeKZP-1">
          <mxGeometry x="1100" y="300" width="240" height="40" as="geometry" />
        </mxCell>
      </root>
    </mxGraphModel>
  </diagram>
  <diagram id="lluotDmULnmK1CvSNh54" name="15 - version">
    <mxGraphModel dx="1155" dy="568" grid="1" gridSize="10" guides="1" tooltips="1" connect="1" arrows="1" fold="1" page="1" pageScale="1" pageWidth="1920" pageHeight="1200" math="0" shadow="0">
      <root>
        <mxCell id="Ao-zzdglHLPNxSHl_LA7-0" />
        <mxCell id="Ao-zzdglHLPNxSHl_LA7-1" parent="Ao-zzdglHLPNxSHl_LA7-0" />
        <mxCell id="vstDCxDIrgK-pX8FmlrG-0" value="Transactions DB" style="rounded=0;whiteSpace=wrap;html=1;fillColor=#f5f5f5;strokeColor=#666666;fontColor=#333333;fontStyle=1;fontSize=16;" vertex="1" parent="Ao-zzdglHLPNxSHl_LA7-1">
          <mxGeometry x="560" y="225" width="230" height="30" as="geometry" />
        </mxCell>
        <mxCell id="vstDCxDIrgK-pX8FmlrG-1" value="" style="rounded=0;whiteSpace=wrap;html=1;fillColor=#f5f5f5;strokeColor=#666666;fontColor=#333333;" vertex="1" parent="Ao-zzdglHLPNxSHl_LA7-1">
          <mxGeometry x="560" y="255" width="230" height="150" as="geometry" />
        </mxCell>
        <mxCell id="vstDCxDIrgK-pX8FmlrG-2" value="" style="strokeWidth=1;shadow=0;dashed=0;align=center;html=1;shape=mxgraph.mockup.containers.browserWindow;rSize=0;strokeColor=#666666;strokeColor2=#008cff;strokeColor3=#c4c4c4;mainText=,;recursiveResize=0;fontSize=13;" vertex="1" parent="Ao-zzdglHLPNxSHl_LA7-1">
          <mxGeometry x="90" y="170" width="240" height="240" as="geometry" />
        </mxCell>
        <mxCell id="vstDCxDIrgK-pX8FmlrG-3" value="Page 1" style="strokeWidth=1;shadow=0;dashed=0;align=center;html=1;shape=mxgraph.mockup.containers.anchor;fontSize=17;fontColor=#666666;align=left;" vertex="1" parent="vstDCxDIrgK-pX8FmlrG-2">
          <mxGeometry x="60" y="12" width="110" height="26" as="geometry" />
        </mxCell>
        <mxCell id="vstDCxDIrgK-pX8FmlrG-4" value="" style="strokeWidth=1;shadow=0;dashed=0;align=center;html=1;shape=mxgraph.mockup.containers.anchor;rSize=0;fontSize=17;fontColor=#666666;align=left;" vertex="1" parent="vstDCxDIrgK-pX8FmlrG-2">
          <mxGeometry x="130" y="60" width="250" height="26" as="geometry" />
        </mxCell>
        <mxCell id="vstDCxDIrgK-pX8FmlrG-5" value="UserID &#39;CZQ&#39; -&lt;br&gt;Deposit $70" style="rounded=0;whiteSpace=wrap;html=1;fontSize=12;align=center;fillColor=#f8cecc;strokeColor=#b85450;" vertex="1" parent="vstDCxDIrgK-pX8FmlrG-2">
          <mxGeometry x="110" y="125" width="130" height="30" as="geometry" />
        </mxCell>
        <mxCell id="vstDCxDIrgK-pX8FmlrG-6" value="UserID &#39;CZQ&#39; -&lt;br&gt;Deposit&amp;nbsp;$40" style="rounded=0;whiteSpace=wrap;html=1;fontSize=12;align=center;fillColor=#f8cecc;strokeColor=#b85450;" vertex="1" parent="vstDCxDIrgK-pX8FmlrG-2">
          <mxGeometry x="110" y="155" width="130" height="30" as="geometry" />
        </mxCell>
        <mxCell id="vstDCxDIrgK-pX8FmlrG-7" value="UserID &#39;CZQ&#39; -&lt;br&gt;Withdraw $100" style="rounded=0;whiteSpace=wrap;html=1;fontSize=12;align=center;fillColor=#ffe6cc;strokeColor=#d79b00;" vertex="1" parent="vstDCxDIrgK-pX8FmlrG-2">
          <mxGeometry x="110" y="185" width="130" height="30" as="geometry" />
        </mxCell>
        <mxCell id="vstDCxDIrgK-pX8FmlrG-8" style="edgeStyle=orthogonalEdgeStyle;rounded=0;orthogonalLoop=1;jettySize=auto;html=1;exitX=1;exitY=0.5;exitDx=0;exitDy=0;entryX=0;entryY=0.5;entryDx=0;entryDy=0;fontSize=10;" edge="1" parent="Ao-zzdglHLPNxSHl_LA7-1" source="vstDCxDIrgK-pX8FmlrG-9" target="vstDCxDIrgK-pX8FmlrG-1">
          <mxGeometry relative="1" as="geometry" />
        </mxCell>
        <mxCell id="vstDCxDIrgK-pX8FmlrG-9" value="Transactions Service" style="rounded=0;whiteSpace=wrap;html=1;fillColor=#f5f5f5;strokeColor=#666666;fontColor=#333333;fontStyle=1;fontSize=16;" vertex="1" parent="Ao-zzdglHLPNxSHl_LA7-1">
          <mxGeometry x="410" y="260" width="110" height="140" as="geometry" />
        </mxCell>
        <mxCell id="vstDCxDIrgK-pX8FmlrG-10" value="" style="shape=curlyBracket;whiteSpace=wrap;html=1;rounded=1;fontSize=13;align=center;rotation=-180;" vertex="1" parent="Ao-zzdglHLPNxSHl_LA7-1">
          <mxGeometry x="340" y="295" width="50" height="90" as="geometry" />
        </mxCell>
        <mxCell id="vstDCxDIrgK-pX8FmlrG-11" value="" style="endArrow=classic;html=1;fontSize=12;fontColor=#000000;" edge="1" parent="Ao-zzdglHLPNxSHl_LA7-1">
          <mxGeometry width="50" height="50" relative="1" as="geometry">
            <mxPoint x="380" y="340" as="sourcePoint" />
            <mxPoint x="410" y="339.71000000000004" as="targetPoint" />
          </mxGeometry>
        </mxCell>
        <mxCell id="vstDCxDIrgK-pX8FmlrG-12" value="UserId" style="rounded=0;whiteSpace=wrap;html=1;fontSize=10;align=center;fillColor=#dae8fc;strokeColor=#6c8ebf;" vertex="1" parent="Ao-zzdglHLPNxSHl_LA7-1">
          <mxGeometry x="570" y="265" width="60" height="20" as="geometry" />
        </mxCell>
        <mxCell id="vstDCxDIrgK-pX8FmlrG-13" value="CZQ" style="rounded=0;whiteSpace=wrap;html=1;fontSize=10;align=center;" vertex="1" parent="Ao-zzdglHLPNxSHl_LA7-1">
          <mxGeometry x="570" y="285" width="60" height="110" as="geometry" />
        </mxCell>
        <mxCell id="vstDCxDIrgK-pX8FmlrG-14" value="Transactions" style="rounded=0;whiteSpace=wrap;html=1;fontSize=10;align=center;fillColor=#dae8fc;strokeColor=#6c8ebf;" vertex="1" parent="Ao-zzdglHLPNxSHl_LA7-1">
          <mxGeometry x="630" y="265" width="150" height="20" as="geometry" />
        </mxCell>
        <mxCell id="vstDCxDIrgK-pX8FmlrG-15" value="" style="rounded=0;whiteSpace=wrap;html=1;fontSize=10;align=center;" vertex="1" parent="Ao-zzdglHLPNxSHl_LA7-1">
          <mxGeometry x="630" y="285" width="150" height="110" as="geometry" />
        </mxCell>
        <mxCell id="vstDCxDIrgK-pX8FmlrG-16" value="Deposit 40, ID: &#39;5j25&#39;" style="rounded=0;whiteSpace=wrap;html=1;fontSize=12;align=center;fillColor=#f8cecc;strokeColor=#b85450;" vertex="1" parent="Ao-zzdglHLPNxSHl_LA7-1">
          <mxGeometry x="640" y="320" width="130" height="30" as="geometry" />
        </mxCell>
        <mxCell id="vstDCxDIrgK-pX8FmlrG-17" value="Withdraw 100, ID: &#39;1ko1&#39;" style="rounded=0;whiteSpace=wrap;html=1;fontSize=12;align=center;fillColor=#f8cecc;strokeColor=#b85450;" vertex="1" parent="Ao-zzdglHLPNxSHl_LA7-1">
          <mxGeometry x="640" y="350" width="130" height="30" as="geometry" />
        </mxCell>
        <mxCell id="vstDCxDIrgK-pX8FmlrG-18" value="" style="rounded=0;whiteSpace=wrap;html=1;fillColor=#f5f5f5;strokeColor=#666666;fontColor=#333333;" vertex="1" parent="Ao-zzdglHLPNxSHl_LA7-1">
          <mxGeometry x="1050" y="265" width="190" height="310" as="geometry" />
        </mxCell>
        <mxCell id="vstDCxDIrgK-pX8FmlrG-19" value="NATS Streaming" style="rounded=0;whiteSpace=wrap;html=1;fillColor=#fff2cc;strokeColor=#d6b656;fontStyle=1;fontSize=16;" vertex="1" parent="Ao-zzdglHLPNxSHl_LA7-1">
          <mxGeometry x="1050" y="225" width="190" height="40" as="geometry" />
        </mxCell>
        <mxCell id="vstDCxDIrgK-pX8FmlrG-20" value="List of Channels" style="rounded=0;whiteSpace=wrap;html=1;fontSize=12;fillColor=#dae8fc;strokeColor=#6c8ebf;fontStyle=1" vertex="1" parent="Ao-zzdglHLPNxSHl_LA7-1">
          <mxGeometry x="1060" y="285" width="170" height="30" as="geometry" />
        </mxCell>
        <mxCell id="vstDCxDIrgK-pX8FmlrG-21" value="" style="rounded=0;whiteSpace=wrap;html=1;fontSize=12;fillColor=#dae8fc;strokeColor=#6c8ebf;fontStyle=1" vertex="1" parent="Ao-zzdglHLPNxSHl_LA7-1">
          <mxGeometry x="1060" y="315" width="170" height="250" as="geometry" />
        </mxCell>
        <mxCell id="vstDCxDIrgK-pX8FmlrG-22" style="edgeStyle=orthogonalEdgeStyle;rounded=0;orthogonalLoop=1;jettySize=auto;html=1;exitX=0;exitY=0.75;exitDx=0;exitDy=0;entryX=1;entryY=0.5;entryDx=0;entryDy=0;fontSize=23;" edge="1" parent="Ao-zzdglHLPNxSHl_LA7-1" source="vstDCxDIrgK-pX8FmlrG-24" target="vstDCxDIrgK-pX8FmlrG-26">
          <mxGeometry relative="1" as="geometry" />
        </mxCell>
        <mxCell id="vstDCxDIrgK-pX8FmlrG-23" style="edgeStyle=orthogonalEdgeStyle;rounded=0;orthogonalLoop=1;jettySize=auto;html=1;exitX=0;exitY=0.75;exitDx=0;exitDy=0;entryX=1;entryY=0.5;entryDx=0;entryDy=0;fontSize=23;" edge="1" parent="Ao-zzdglHLPNxSHl_LA7-1" source="vstDCxDIrgK-pX8FmlrG-24" target="vstDCxDIrgK-pX8FmlrG-28">
          <mxGeometry relative="1" as="geometry" />
        </mxCell>
        <mxCell id="vstDCxDIrgK-pX8FmlrG-24" value="transaction:created" style="rounded=0;whiteSpace=wrap;html=1;fontSize=11;align=center;fontStyle=1" vertex="1" parent="Ao-zzdglHLPNxSHl_LA7-1">
          <mxGeometry x="1070" y="325" width="150" height="95" as="geometry" />
        </mxCell>
        <mxCell id="vstDCxDIrgK-pX8FmlrG-25" style="edgeStyle=orthogonalEdgeStyle;rounded=0;orthogonalLoop=1;jettySize=auto;html=1;exitX=0;exitY=0.5;exitDx=0;exitDy=0;entryX=1;entryY=0.5;entryDx=0;entryDy=0;fontSize=15;" edge="1" parent="Ao-zzdglHLPNxSHl_LA7-1" source="vstDCxDIrgK-pX8FmlrG-26" target="vstDCxDIrgK-pX8FmlrG-31">
          <mxGeometry relative="1" as="geometry" />
        </mxCell>
        <mxCell id="vstDCxDIrgK-pX8FmlrG-26" value="Account Srv (Listener) A" style="rounded=0;whiteSpace=wrap;html=1;fillColor=#f5f5f5;strokeColor=#666666;fontColor=#333333;fontStyle=1;fontSize=16;" vertex="1" parent="Ao-zzdglHLPNxSHl_LA7-1">
          <mxGeometry x="780" y="495" width="210" height="30" as="geometry" />
        </mxCell>
        <mxCell id="vstDCxDIrgK-pX8FmlrG-27" style="edgeStyle=orthogonalEdgeStyle;rounded=0;orthogonalLoop=1;jettySize=auto;html=1;exitX=0;exitY=0.5;exitDx=0;exitDy=0;fontSize=15;" edge="1" parent="Ao-zzdglHLPNxSHl_LA7-1" source="vstDCxDIrgK-pX8FmlrG-28" target="vstDCxDIrgK-pX8FmlrG-31">
          <mxGeometry relative="1" as="geometry" />
        </mxCell>
        <mxCell id="vstDCxDIrgK-pX8FmlrG-28" value="Account Srv (Listener) B" style="rounded=0;whiteSpace=wrap;html=1;fillColor=#f5f5f5;strokeColor=#666666;fontColor=#333333;fontStyle=1;fontSize=16;" vertex="1" parent="Ao-zzdglHLPNxSHl_LA7-1">
          <mxGeometry x="780" y="555" width="210" height="30" as="geometry" />
        </mxCell>
        <mxCell id="vstDCxDIrgK-pX8FmlrG-29" value="Deposit 70, ID: &#39;ksjf&#39;" style="rounded=0;whiteSpace=wrap;html=1;fontSize=12;align=center;fillColor=#f8cecc;strokeColor=#b85450;" vertex="1" parent="Ao-zzdglHLPNxSHl_LA7-1">
          <mxGeometry x="640" y="290" width="130" height="30" as="geometry" />
        </mxCell>
        <mxCell id="vstDCxDIrgK-pX8FmlrG-30" value="Accounts Database" style="rounded=0;whiteSpace=wrap;html=1;fillColor=#f5f5f5;strokeColor=#666666;fontColor=#333333;fontStyle=1;fontSize=16;" vertex="1" parent="Ao-zzdglHLPNxSHl_LA7-1">
          <mxGeometry x="460" y="420" width="260" height="30" as="geometry" />
        </mxCell>
        <mxCell id="vstDCxDIrgK-pX8FmlrG-31" value="" style="rounded=0;whiteSpace=wrap;html=1;fillColor=#f5f5f5;strokeColor=#666666;fontColor=#333333;" vertex="1" parent="Ao-zzdglHLPNxSHl_LA7-1">
          <mxGeometry x="460" y="450" width="260" height="200" as="geometry" />
        </mxCell>
        <mxCell id="vstDCxDIrgK-pX8FmlrG-32" value="UserId" style="rounded=0;whiteSpace=wrap;html=1;fontSize=10;align=center;fillColor=#dae8fc;strokeColor=#6c8ebf;" vertex="1" parent="Ao-zzdglHLPNxSHl_LA7-1">
          <mxGeometry x="470" y="460" width="60" height="20" as="geometry" />
        </mxCell>
        <mxCell id="vstDCxDIrgK-pX8FmlrG-33" value="CZQ" style="rounded=0;whiteSpace=wrap;html=1;fontSize=15;align=center;" vertex="1" parent="Ao-zzdglHLPNxSHl_LA7-1">
          <mxGeometry x="470" y="480" width="60" height="55" as="geometry" />
        </mxCell>
        <mxCell id="vstDCxDIrgK-pX8FmlrG-34" value="Balance" style="rounded=0;whiteSpace=wrap;html=1;fontSize=10;align=center;fillColor=#dae8fc;strokeColor=#6c8ebf;" vertex="1" parent="Ao-zzdglHLPNxSHl_LA7-1">
          <mxGeometry x="530" y="460" width="100" height="20" as="geometry" />
        </mxCell>
        <mxCell id="vstDCxDIrgK-pX8FmlrG-35" value="Last Txn Number" style="rounded=0;whiteSpace=wrap;html=1;fontSize=10;align=center;fillColor=#dae8fc;strokeColor=#6c8ebf;" vertex="1" parent="Ao-zzdglHLPNxSHl_LA7-1">
          <mxGeometry x="630" y="460" width="80" height="20" as="geometry" />
        </mxCell>
        <mxCell id="vstDCxDIrgK-pX8FmlrG-36" value="1" style="rounded=0;whiteSpace=wrap;html=1;fontSize=15;align=center;" vertex="1" parent="Ao-zzdglHLPNxSHl_LA7-1">
          <mxGeometry x="630" y="480" width="80" height="55" as="geometry" />
        </mxCell>
        <mxCell id="vstDCxDIrgK-pX8FmlrG-37" value="10" style="rounded=0;whiteSpace=wrap;html=1;fontSize=15;align=center;" vertex="1" parent="Ao-zzdglHLPNxSHl_LA7-1">
          <mxGeometry x="530" y="480" width="100" height="55" as="geometry" />
        </mxCell>
        <mxCell id="vstDCxDIrgK-pX8FmlrG-38" value="JP4" style="rounded=0;whiteSpace=wrap;html=1;fontSize=15;align=center;" vertex="1" parent="Ao-zzdglHLPNxSHl_LA7-1">
          <mxGeometry x="470" y="530" width="60" height="55" as="geometry" />
        </mxCell>
        <mxCell id="vstDCxDIrgK-pX8FmlrG-39" value="" style="rounded=0;whiteSpace=wrap;html=1;fontSize=15;align=center;" vertex="1" parent="Ao-zzdglHLPNxSHl_LA7-1">
          <mxGeometry x="630" y="530" width="80" height="55" as="geometry" />
        </mxCell>
        <mxCell id="vstDCxDIrgK-pX8FmlrG-40" value="" style="rounded=0;whiteSpace=wrap;html=1;fontSize=15;align=center;" vertex="1" parent="Ao-zzdglHLPNxSHl_LA7-1">
          <mxGeometry x="530" y="530" width="100" height="55" as="geometry" />
        </mxCell>
        <mxCell id="vstDCxDIrgK-pX8FmlrG-41" value="KAN" style="rounded=0;whiteSpace=wrap;html=1;fontSize=15;align=center;" vertex="1" parent="Ao-zzdglHLPNxSHl_LA7-1">
          <mxGeometry x="470" y="585" width="60" height="55" as="geometry" />
        </mxCell>
        <mxCell id="vstDCxDIrgK-pX8FmlrG-42" value="" style="rounded=0;whiteSpace=wrap;html=1;fontSize=15;align=center;" vertex="1" parent="Ao-zzdglHLPNxSHl_LA7-1">
          <mxGeometry x="630" y="585" width="80" height="55" as="geometry" />
        </mxCell>
        <mxCell id="vstDCxDIrgK-pX8FmlrG-43" value="" style="rounded=0;whiteSpace=wrap;html=1;fontSize=15;align=center;" vertex="1" parent="Ao-zzdglHLPNxSHl_LA7-1">
          <mxGeometry x="530" y="585" width="100" height="55" as="geometry" />
        </mxCell>
        <mxCell id="vstDCxDIrgK-pX8FmlrG-44" value="&lt;b&gt;ticket:created&lt;/b&gt;&lt;br&gt;Deposit 70, id: &#39;ksjf&#39;&lt;br&gt;userId: &#39;CZQ&#39;, number: 1" style="rounded=0;whiteSpace=wrap;html=1;fontSize=12;align=center;fillColor=#f8cecc;strokeColor=#b85450;" vertex="1" parent="Ao-zzdglHLPNxSHl_LA7-1">
          <mxGeometry x="810" y="280" width="150" height="45" as="geometry" />
        </mxCell>
        <mxCell id="vstDCxDIrgK-pX8FmlrG-45" value="&lt;b&gt;transaction:created&lt;/b&gt;&lt;br&gt;withdraw 100, id: &#39;1ko1&#39;&lt;br&gt;userId: &#39;CZQ&#39;, number: 3" style="rounded=0;whiteSpace=wrap;html=1;fontSize=12;align=center;fillColor=#f8cecc;strokeColor=#b85450;" vertex="1" parent="Ao-zzdglHLPNxSHl_LA7-1">
          <mxGeometry x="770" y="585" width="150" height="45" as="geometry" />
        </mxCell>
      </root>
    </mxGraphModel>
  </diagram>
  <diagram id="ogyzOm3vWa9Gd__8UcEq" name="16 - transactions">
    <mxGraphModel dx="715" dy="352" grid="1" gridSize="10" guides="1" tooltips="1" connect="1" arrows="1" fold="1" page="1" pageScale="1" pageWidth="1920" pageHeight="1200" math="0" shadow="0">
      <root>
        <mxCell id="5vP-1UcrSuHjfiqT0Z_O-0" />
        <mxCell id="5vP-1UcrSuHjfiqT0Z_O-1" parent="5vP-1UcrSuHjfiqT0Z_O-0" />
        <mxCell id="BKk2ZVz_N-uwk7U3IyzV-4" style="edgeStyle=orthogonalEdgeStyle;rounded=0;orthogonalLoop=1;jettySize=auto;html=1;exitX=1;exitY=0.5;exitDx=0;exitDy=0;strokeWidth=1;fontSize=15;" edge="1" parent="5vP-1UcrSuHjfiqT0Z_O-1" source="5vP-1UcrSuHjfiqT0Z_O-2">
          <mxGeometry relative="1" as="geometry">
            <mxPoint x="740" y="309.9047619047619" as="targetPoint" />
          </mxGeometry>
        </mxCell>
        <mxCell id="5vP-1UcrSuHjfiqT0Z_O-2" value="User CZQ" style="rounded=0;whiteSpace=wrap;html=1;fontSize=15;align=center;fillColor=#dae8fc;strokeColor=#6c8ebf;fontStyle=1" vertex="1" parent="5vP-1UcrSuHjfiqT0Z_O-1">
          <mxGeometry x="580" y="280" width="120" height="60" as="geometry" />
        </mxCell>
        <mxCell id="BKk2ZVz_N-uwk7U3IyzV-5" style="edgeStyle=orthogonalEdgeStyle;rounded=0;orthogonalLoop=1;jettySize=auto;html=1;exitX=1;exitY=0.5;exitDx=0;exitDy=0;strokeWidth=1;fontSize=15;" edge="1" parent="5vP-1UcrSuHjfiqT0Z_O-1" source="BKk2ZVz_N-uwk7U3IyzV-0">
          <mxGeometry relative="1" as="geometry">
            <mxPoint x="740" y="459.9047619047619" as="targetPoint" />
          </mxGeometry>
        </mxCell>
        <mxCell id="BKk2ZVz_N-uwk7U3IyzV-0" value="User PWY" style="rounded=0;whiteSpace=wrap;html=1;fontSize=15;align=center;fillColor=#dae8fc;strokeColor=#6c8ebf;fontStyle=1" vertex="1" parent="5vP-1UcrSuHjfiqT0Z_O-1">
          <mxGeometry x="580" y="430" width="120" height="60" as="geometry" />
        </mxCell>
        <mxCell id="BKk2ZVz_N-uwk7U3IyzV-2" style="edgeStyle=orthogonalEdgeStyle;rounded=0;orthogonalLoop=1;jettySize=auto;html=1;exitX=0.5;exitY=0;exitDx=0;exitDy=0;strokeWidth=1;fontSize=15;" edge="1" parent="5vP-1UcrSuHjfiqT0Z_O-1" source="BKk2ZVz_N-uwk7U3IyzV-1" target="5vP-1UcrSuHjfiqT0Z_O-2">
          <mxGeometry relative="1" as="geometry" />
        </mxCell>
        <mxCell id="BKk2ZVz_N-uwk7U3IyzV-3" style="edgeStyle=orthogonalEdgeStyle;rounded=0;orthogonalLoop=1;jettySize=auto;html=1;exitX=0.5;exitY=1;exitDx=0;exitDy=0;strokeWidth=1;fontSize=15;" edge="1" parent="5vP-1UcrSuHjfiqT0Z_O-1" source="BKk2ZVz_N-uwk7U3IyzV-1" target="BKk2ZVz_N-uwk7U3IyzV-0">
          <mxGeometry relative="1" as="geometry" />
        </mxCell>
        <mxCell id="BKk2ZVz_N-uwk7U3IyzV-1" value="Members of the same account" style="text;html=1;strokeColor=none;fillColor=none;align=center;verticalAlign=middle;whiteSpace=wrap;rounded=0;fontSize=15;fontStyle=2" vertex="1" parent="5vP-1UcrSuHjfiqT0Z_O-1">
          <mxGeometry x="580" y="365" width="120" height="40" as="geometry" />
        </mxCell>
        <mxCell id="BKk2ZVz_N-uwk7U3IyzV-6" value="Deposit $40" style="rounded=0;whiteSpace=wrap;html=1;fontSize=15;align=center;fillColor=#fff2cc;strokeColor=#d6b656;" vertex="1" parent="5vP-1UcrSuHjfiqT0Z_O-1">
          <mxGeometry x="740" y="270" width="120" height="40" as="geometry" />
        </mxCell>
        <mxCell id="BKk2ZVz_N-uwk7U3IyzV-11" style="edgeStyle=orthogonalEdgeStyle;rounded=0;orthogonalLoop=1;jettySize=auto;html=1;exitX=1;exitY=0;exitDx=0;exitDy=0;entryX=0;entryY=0.5;entryDx=0;entryDy=0;strokeWidth=1;fontSize=18;" edge="1" parent="5vP-1UcrSuHjfiqT0Z_O-1" source="BKk2ZVz_N-uwk7U3IyzV-7" target="BKk2ZVz_N-uwk7U3IyzV-10">
          <mxGeometry relative="1" as="geometry">
            <Array as="points">
              <mxPoint x="900" y="310" />
              <mxPoint x="900" y="375" />
            </Array>
          </mxGeometry>
        </mxCell>
        <mxCell id="BKk2ZVz_N-uwk7U3IyzV-7" value="Withdraw $100" style="rounded=0;whiteSpace=wrap;html=1;fontSize=15;align=center;fillColor=#fff2cc;strokeColor=#d6b656;" vertex="1" parent="5vP-1UcrSuHjfiqT0Z_O-1">
          <mxGeometry x="740" y="310" width="120" height="40" as="geometry" />
        </mxCell>
        <mxCell id="BKk2ZVz_N-uwk7U3IyzV-12" style="edgeStyle=orthogonalEdgeStyle;rounded=0;orthogonalLoop=1;jettySize=auto;html=1;exitX=1;exitY=0.5;exitDx=0;exitDy=0;entryX=0;entryY=0.5;entryDx=0;entryDy=0;strokeWidth=1;fontSize=18;" edge="1" parent="5vP-1UcrSuHjfiqT0Z_O-1" source="BKk2ZVz_N-uwk7U3IyzV-8" target="BKk2ZVz_N-uwk7U3IyzV-10">
          <mxGeometry relative="1" as="geometry" />
        </mxCell>
        <mxCell id="BKk2ZVz_N-uwk7U3IyzV-8" value="Deposit $70" style="rounded=0;whiteSpace=wrap;html=1;fontSize=15;align=center;fillColor=#fff2cc;strokeColor=#d6b656;" vertex="1" parent="5vP-1UcrSuHjfiqT0Z_O-1">
          <mxGeometry x="740" y="440" width="120" height="40" as="geometry" />
        </mxCell>
        <mxCell id="BKk2ZVz_N-uwk7U3IyzV-10" value="Account 3CD" style="rounded=0;whiteSpace=wrap;html=1;fontSize=18;align=center;fillColor=#dae8fc;strokeColor=#6c8ebf;fontStyle=1" vertex="1" parent="5vP-1UcrSuHjfiqT0Z_O-1">
          <mxGeometry x="940" y="345" width="150" height="60" as="geometry" />
        </mxCell>
      </root>
    </mxGraphModel>
  </diagram>
</mxfile>
